<svg xmlns="http://www.w3.org/2000/svg" viewBox="0 0 161.91 128.19"><defs><style>.cls-1{fill:#fff;}</style></defs><g id="Layer_2" data-name="Layer 2"><g id="Layer_1-2" data-name="Layer 1"><g id="outline"><path class="cls-1" d="M124,75.75h-3.64a33.82,33.82,0,0,1-5.12-15,5.94,5.94,0,0,0,7.13-4.44,6.07,6.07,0,0,0,.15-1.35V53.47a1.5,1.5,0,0,0-.66-1.24h0l-3.52-2.34A132.3,132.3,0,0,1,92.94,27.78L82.43,14.34V11.88h4.45v1.49a3,3,0,0,0,3,3h10.39a1.48,1.48,0,0,0,1.41-2l-1.33-4,1.33-4a1.47,1.47,0,0,0-1.41-1.95H94.31V3a3,3,0,0,0-3-3H80.94a1.48,1.48,0,0,0-1.48,1.49V14.34L69,27.78A132.36,132.36,0,0,1,43.53,49.89L40,52.23h0a1.5,1.5,0,0,0-.66,1.24V55a5.93,5.93,0,0,0,5.93,5.94,6.21,6.21,0,0,0,1.35-.15,33.94,33.94,0,0,1-5.12,15H37.87a1.48,1.48,0,0,0-1.48,1.48v5.94a1.49,1.49,0,0,0,1.48,1.49H124a1.49,1.49,0,0,0,1.49-1.49V77.23A1.48,1.48,0,0,0,124,75.75Zm-13.82,0a64.28,64.28,0,0,1-3.58-15,6,6,0,0,0,5.52-1.92l0,0a36.81,36.81,0,0,0,4.74,16.85Zm-18.8,0a25.81,25.81,0,0,1,.88-5.39q1,.36,2,.63v4.76Zm-17.91,0a28.84,28.84,0,0,0-1.11-6.59,23.13,23.13,0,0,0,7.14-5.71l1.43-1.72,1.44,1.72a22.87,22.87,0,0,0,7.14,5.71,28.94,28.94,0,0,0-1.11,6.59Zm-18.63,0A66.51,66.51,0,0,0,58.4,59.39a.88.88,0,0,0,0-.23l.27-.28a6,6,0,0,0,5.94,1.83v15ZM57.18,55a3,3,0,0,1-5.94,0Zm53.47,0a3,3,0,1,1-5.94,0ZM94.43,52A8.1,8.1,0,0,0,97.28,46c0-4.37-4-8-9.89-9.58A75.59,75.59,0,0,1,84.07,24L84,23.31l1.86,3.36A106.25,106.25,0,0,0,105.37,52Zm-9.77,9.57-1.07-1.28a6,6,0,0,0,1.81-1.4,5.92,5.92,0,0,0,8.37.55,5.62,5.62,0,0,0,.54-.55v9a20,20,0,0,1-9.65-6.35ZM67.58,67.9v-9a5.92,5.92,0,0,0,8.36.54,5.62,5.62,0,0,0,.55-.54,6.25,6.25,0,0,0,1.8,1.39l-1.06,1.28A20,20,0,0,1,67.58,67.9ZM66.09,55a3,3,0,0,1-5.94,0ZM80.94,23.4l.21,1.14A76.73,76.73,0,0,0,84,35.82a26.44,26.44,0,0,0-6.16,0,78,78,0,0,0,2.88-11.28ZM75.81,39.21a1.14,1.14,0,0,0,.25-.06,21.65,21.65,0,0,1,4.88-.53c7.25,0,13.37,3.4,13.37,7.42s-6.12,7.43-13.37,7.43S67.58,50.07,67.58,46C67.58,43,71,40.35,75.81,39.21ZM92.83,55a3,3,0,0,1-5.84.77,18.51,18.51,0,0,0,5.86-2.49,1,1,0,0,0,0,.24Zm-11.89,3a3,3,0,0,1-2.64-1.61c.86.08,1.74.13,2.64.13s1.79,0,2.64-.13A3,3,0,0,1,80.94,57.92Zm-8.61-3a21.22,21.22,0,0,0,2.57.8A3,3,0,0,1,69.06,55s3.18,0,3.27,0ZM95.8,55h5.94a3,3,0,0,1-5.94,0ZM76.08,26.67l1.86-3.36-.12.71A75.59,75.59,0,0,1,74.5,36.46C68.63,38,64.61,41.68,64.61,46A8.1,8.1,0,0,0,67.46,52H56.52A106.25,106.25,0,0,0,76.08,26.67ZM67.58,71q1-.27,2-.63a25.81,25.81,0,0,1,.88,5.39H67.58Zm29.7-1.19V60.71a6,6,0,0,0,5.94-1.83l.24.26A67.11,67.11,0,0,0,107,75.75H97.28Zm19.31-11.88a3,3,0,0,1-3-3h5.94A3,3,0,0,1,116.59,57.92ZM116.15,52h-6.41a102.9,102.9,0,0,1-17.82-20.9A135,135,0,0,0,116.15,52ZM89.86,13.37V11.88h1.48v1.49Zm8.33-5.94-.83,2.5a1.51,1.51,0,0,0,0,.94l.83,2.5H94.31V7.43ZM91.34,8.91H82.43V3h8.91ZM70,31.08A102.9,102.9,0,0,1,52.15,52H45.74A135,135,0,0,0,70,31.08ZM42.33,55h5.94a3,3,0,0,1-5.94,0Zm7.4,3.95,0,0a6,6,0,0,0,5.52,1.92,64.28,64.28,0,0,1-3.58,15H45A36.7,36.7,0,0,0,49.73,58.9Zm72.8,22.79H39.36v-3h83.17Z"/></g><path class="cls-1" d="M8.86,119.84h1.37l2.66,6.74,2.65-6.74H16.9l-3.28,8.08H12.15Z"/><path class="cls-1" d="M18.54,119.84h1.29v8.08H18.54Z"/><path class="cls-1" d="M22.05,119.84h1.63L28,126.33v-6.49h1.28v8.08H27.61l-4.28-6.5v6.5H22.05Z"/><path class="cls-1" d="M33.74,121H30.91v-1.12h7V121H35v7H33.74Z"/><path class="cls-1" d="M41.29,119.84h1.54l3.31,8.08H44.77L44,126.09H40.1l-.74,1.83H38ZM43.67,125l-1.61-4-1.62,4Z"/><path class="cls-1" d="M49.15,127.63a4.13,4.13,0,0,1-1.59-1.54,4.22,4.22,0,0,1-.58-2.21,4.38,4.38,0,0,1,.57-2.23,4.1,4.1,0,0,1,1.59-1.53,4.67,4.67,0,0,1,2.29-.55,4.21,4.21,0,0,1,1.62.31,4,4,0,0,1,1.33.85,3.27,3.27,0,0,1,.79,1.25l-1.19.34a2.15,2.15,0,0,0-.55-.84,2.8,2.8,0,0,0-.91-.59,2.93,2.93,0,0,0-1.09-.21,3.16,3.16,0,0,0-1.63.41,2.88,2.88,0,0,0-1.13,1.14,3.36,3.36,0,0,0-.4,1.65,3.17,3.17,0,0,0,.43,1.65,3,3,0,0,0,1.19,1.14,3.48,3.48,0,0,0,1.7.42,3.61,3.61,0,0,0,1.57-.35,2.83,2.83,0,0,0,1.14-1,2.22,2.22,0,0,0,.43-1.33H50v-1h6v4.5H55l-.12-1.39a4,4,0,0,1-1.47,1.22,4.25,4.25,0,0,1-2,.44A4.59,4.59,0,0,1,49.15,127.63Z"/><path class="cls-1" d="M58,119.84h6.06v1.1h-4.8v2.31h4.34v1H59.29v2.53H64.2v1.1H58Z"/><path class="cls-1" d="M71.8,127.9a2.43,2.43,0,0,1-1-.84,2.1,2.1,0,0,1-.37-1.23,2,2,0,0,1,.44-1.38,3.57,3.57,0,0,1,1.25-.88,3.28,3.28,0,0,1-.57-.84,2.14,2.14,0,0,1,.12-2,2.15,2.15,0,0,1,.9-.78,2.83,2.83,0,0,1,1.28-.28,3.37,3.37,0,0,1,1.29.24,2.07,2.07,0,0,1,.91.7,1.82,1.82,0,0,1,.34,1.12,1.75,1.75,0,0,1-.33,1.09,2.29,2.29,0,0,1-.87.71,6.72,6.72,0,0,1-1.38.51l-.73-.69A11.14,11.14,0,0,0,74.2,123a2,2,0,0,0,.73-.45.94.94,0,0,0,.28-.72,1,1,0,0,0-.18-.57,1.16,1.16,0,0,0-.49-.41,1.67,1.67,0,0,0-.67-.14,1.45,1.45,0,0,0-1,.32,1,1,0,0,0-.37.83,1.46,1.46,0,0,0,.22.77,2.72,2.72,0,0,0,.66.73l2.8,2.35a4.42,4.42,0,0,0,1-1.69l.87.73A6.93,6.93,0,0,1,77,126.37l1.84,1.55H77.2l-1-.82a5.26,5.26,0,0,1-1.41.81,4.26,4.26,0,0,1-1.52.28A3.65,3.65,0,0,1,71.8,127.9Zm2.66-.94a3.23,3.23,0,0,0,1-.54l-2.54-2.14a2.22,2.22,0,0,0-.93.58,1.35,1.35,0,0,0-.31.92,1.16,1.16,0,0,0,.23.71,1.46,1.46,0,0,0,.65.48,2.27,2.27,0,0,0,.93.17A3,3,0,0,0,74.46,127Z"/><path class="cls-1" d="M87.38,121H84.56v-1.12h7V121H88.67v7H87.38Z"/><path class="cls-1" d="M93.21,119.84h6.05v1.1h-4.8v2.31H98.8v1H94.46v2.53h4.91v1.1H93.21Z"/><path class="cls-1" d="M101.21,119.84h1.64l4.27,6.49v-6.49h1.28v8.08h-1.62l-4.29-6.5v6.5h-1.28Z"/><path class="cls-1" d="M112.9,121h-2.82v-1.12h7V121h-2.86v7H112.9Z"/><path class="cls-1" d="M123.41,119.84h1.29v3.33h4.54v-3.33h1.3v8.08h-1.3v-3.67H124.7v3.67h-1.29Z"/><path class="cls-1" d="M132.75,119.84h1.3v8.08h-1.3Z"/><path class="cls-1" d="M142,128a1.19,1.19,0,0,1-.45-.35,1.43,1.43,0,0,1-.27-.52l-.54-1.59a1.31,1.31,0,0,0-.45-.66,1,1,0,0,0-.65-.25h-2.13v3.27h-1.29v-8.08h4.17a3.83,3.83,0,0,1,1.55.31,2.68,2.68,0,0,1,1.07.85,2,2,0,0,1,.39,1.23,2,2,0,0,1-.27,1,2.1,2.1,0,0,1-.74.77,3,3,0,0,1-1.11.4,1.79,1.79,0,0,1,.45.42,1.71,1.71,0,0,1,.29.59l.43,1.3a.86.86,0,0,0,.19.31.38.38,0,0,0,.29.12.55.55,0,0,0,.37-.14,1.16,1.16,0,0,0,.32-.37l.52.7a2.36,2.36,0,0,1-.67.59,1.79,1.79,0,0,1-.85.22A1.38,1.38,0,0,1,142,128Zm-1.68-4.43a2.43,2.43,0,0,0,.92-.17,1.72,1.72,0,0,0,.64-.47,1.07,1.07,0,0,0,.24-.68,1.1,1.1,0,0,0-.24-.7,1.43,1.43,0,0,0-.64-.48,2.25,2.25,0,0,0-.92-.17h-2.81v2.67Z"/><path class="cls-1" d="M145.75,119.84h6.06v1.1H147v2.31h4.34v1H147v2.53h4.91v1.1h-6.17Z"/><path class="cls-1" d="M0,97.76H12.29v3.56H4.65v2.51h6.47v3.06H4.65v4.81H0Z"/><path class="cls-1" d="M16.83,97.76h5.53l5.82,13.94H23.33l-.89-2.43H16.61l-.89,2.43H10.89Zm4.77,8.64-2.05-5.47-2.08,5.47Z"/><path class="cls-1" d="M40.57,111.77a3.55,3.55,0,0,1-1.15-.85,6,6,0,0,1-.82-1.22l-.68-1.54a2.24,2.24,0,0,0-.77-.91,1.93,1.93,0,0,0-1.08-.32H33.89v4.77H29.23V97.76h9.41a7.63,7.63,0,0,1,3,.57,4.67,4.67,0,0,1,2,1.61,4,4,0,0,1,.72,2.35,3.54,3.54,0,0,1-1.58,3,5.68,5.68,0,0,1-1.78.81,1.75,1.75,0,0,1,.65.48,2.64,2.64,0,0,1,.48.79l.66,1.34a1.5,1.5,0,0,0,.39.51.76.76,0,0,0,.48.17,1.24,1.24,0,0,0,1-.47l.78,2a4.52,4.52,0,0,1-1.51.82,5.69,5.69,0,0,1-1.84.31A3.65,3.65,0,0,1,40.57,111.77Zm-3-7.66a2.94,2.94,0,0,0,1.12-.21,2,2,0,0,0,.82-.58,1.36,1.36,0,0,0,.3-.85,1.44,1.44,0,0,0-.3-.91,2,2,0,0,0-.81-.59,2.92,2.92,0,0,0-1.13-.21H33.89v3.35Z"/><path class="cls-1" d="M53,97.76h9.15a7.18,7.18,0,0,1,2.85.57A5.06,5.06,0,0,1,67.13,100a4.21,4.21,0,0,1,.82,2.61,4.4,4.4,0,0,1-.74,2.53,4.73,4.73,0,0,1-2.08,1.69,7.4,7.4,0,0,1-3,.6H57.61l0,4.26H53Zm7.84,6.74a3.21,3.21,0,0,0,1.28-.25,2.13,2.13,0,0,0,.88-.67,1.65,1.65,0,0,0,.32-1,1.62,1.62,0,0,0-.32-1,2.22,2.22,0,0,0-.88-.67,3.21,3.21,0,0,0-1.28-.24H57.59l0,3.8Z"/><path class="cls-1" d="M72.74,97.76h5.54L84.1,111.7H79.25l-.9-2.43H72.53l-.9,2.43H66.8Zm4.78,8.64-2-5.47-2.08,5.47Z"/><path class="cls-1" d="M82.42,97.76h4.79l3.76,10,3.74-10h4.83L93.62,111.7H88.34Z"/><path class="cls-1" d="M100.58,97.76h4.63V111.7h-4.63Z"/><path class="cls-1" d="M107.22,97.76h4.65v10.3h6.76v3.64H107.22Z"/><path class="cls-1" d="M120,97.76h4.64V111.7H120Z"/><path class="cls-1" d="M130.51,111.15a7.24,7.24,0,0,1-3.16-2.57,7.19,7.19,0,0,1,0-7.71,7.22,7.22,0,0,1,3.16-2.56,12.88,12.88,0,0,1,9.46,0,7.28,7.28,0,0,1,3.18,2.56,7.14,7.14,0,0,1,0,7.71,7.3,7.3,0,0,1-3.18,2.57,12.88,12.88,0,0,1-9.46,0Zm7-3.13a3.5,3.5,0,0,0,1.55-1.31,3.6,3.6,0,0,0-1.55-5.28,5.31,5.31,0,0,0-2.28-.46,5.4,5.4,0,0,0-2.3.46,3.37,3.37,0,0,0-1.52,1.31,3.92,3.92,0,0,0,0,4,3.31,3.31,0,0,0,1.52,1.31,5.55,5.55,0,0,0,2.3.45A5.46,5.46,0,0,0,137.52,108Z"/><path class="cls-1" d="M145.86,97.76h5.43l6.25,9v-9h4.37V111.7h-5.46l-6.23-9.08v9.08h-4.36Z"/></g></g></svg>