<svg id="Layer_1" data-name="Layer 1" xmlns="http://www.w3.org/2000/svg" viewBox="0 0 39.12 39.12"><defs><style>.cls-1{fill:#fff;}</style></defs><path class="cls-1" d="M26.53,37a19.53,19.53,0,0,1-4.46-7.75,3.84,3.84,0,0,1,.21-3.72c.74-1.07,2-1.07,3.19-1.28a.49.49,0,0,1-.11.64.67.67,0,0,0,.11.95.5.5,0,0,0,.74-.1.38.38,0,0,0,.11-.21c.11-.22-.11-.54-.11-.75s-.21-.42,0-.64c.64.22.75,1.17,1.38,1.39a.62.62,0,0,0,.75-.43.55.55,0,0,0-.32-.74c-.43-.22-.74-.22-1.06-.64a8.33,8.33,0,0,1,1.7.11c.32,0,.53-.54.32-.85a1.41,1.41,0,0,0-1-.22,2.12,2.12,0,0,1-1.17.22c.32-.32.85-.54,1.17-.85s.42-1,0-1.07c-1-.21-1,1.38-1.81,1.6,0-.64.32-1.07,0-1.6-.21-.32-.74-.53-.95-.1-.32.63.53,1.27.21,1.91-.85-.32-1.38-1.49-2.34-1.49-.74,0-1.17,1.06-1.91,1.17a15.88,15.88,0,0,0,0-6.69c-.11-.32.32-.43.53-.43s.53.21.85.21A1.63,1.63,0,0,0,24,14.64,3.41,3.41,0,0,1,25,13.26c.54.21.43.74.64,1.16s.75.54,1,.11c.32-.64-.75-.85-.64-1.59a1.24,1.24,0,0,1,1.06.32c.32.1.85.31,1-.11s-.32-.85-.74-.85-1,.21-1.39-.11c.54-.53,1.6-.1,1.92-.95.1-.32-.22-.64-.64-.64s-1,.74-1.38,1.06c.1-.53.74-1.17.53-1.59a1.14,1.14,0,0,0-.85-.11c-.32.21-.32.64-.21,1.06s.1,1-.43,1c-.42-.32-.21-.85-.64-1.06a.5.5,0,0,0-.74.53c.11.42.64.64.85,1a3.58,3.58,0,0,1-1.49,1.06c-.53.1-1.38-.21-1.38-.85,0-1.17.11-2.34,1.17-3,.42-.21,1-.1,1.38-.42a1.66,1.66,0,0,0,.85-1.6,12.18,12.18,0,0,1,0-1.91c.11-1.27.75-2.44.21-3.61a1.87,1.87,0,0,0-2.23-.85c-.64.21-1.06,1-1.7,1.38s-1.38.74-2,1.27a2,2,0,0,0-.85,2,2.8,2.8,0,0,1-.53,2.87,2.11,2.11,0,0,1-2.65.43,1.24,1.24,0,0,1-.86-.75.67.67,0,0,1,.54-.85h0c.32.11.32.22.42.53s.43.43.75.22.21-.64-.11-.85-.64-.11-.85-.43c.21-.53,1.06-.21,1.38-.64s-.21-.85-.64-.74-.63.74-1.17.85a4.83,4.83,0,0,1,.54-1.06c.1-.11.1-.21.1-.43,0-.42-.64-.53-1-.1s-.1,1-.31,1.38a3,3,0,0,1-.32-1,1.11,1.11,0,0,0-.64-.74.42.42,0,0,0-.53.53c.1.32,1.17.85,1.17,1.38-.43.21-.64-.42-1.07-.64-.31,0-.74.32-.63.64s.42.53.85.53a.55.55,0,0,1,.53.43c.1.21,0,.53,0,.74a3.25,3.25,0,0,0,1.91,3.08,1.08,1.08,0,0,1,.53,1.07c0,.42-.32.74-.42,1.16-1.49,3.51-.85,7.12.42,10.52a2.43,2.43,0,0,0-2.76.43A2.36,2.36,0,0,0,12.29,27c0,.22.11.22.11.43-.32.11-.21-.21-.43-.43s-.74-.53-1-.1c-.43.85.53.74.85,1.27-.43.22-.85-.1-1.28,0a.59.59,0,0,0,.11,1.17c.21,0,.42-.21.64-.21s.42-.32.53-.11c-.43.43-1.17,1-.43,1.38.53.32.64-.85.85-1.16.53.1.32.95.43,1.27a.8.8,0,0,0,.95.43c.43-.11.43-.64.22-1s-.32-.21-.54-.43-.31-.21-.21-.42c.43,0,.64.42,1.17.42a.47.47,0,0,0,.32-.85.9.9,0,0,0-.74-.21c-.32,0-.54,0-.64-.32a.8.8,0,0,1,.21-.53c.53-.53,1-1.06,1.81-1.06a2.69,2.69,0,0,1,2.23,1.59c2.34,3.4,4.14,7.23,7.65,9.57a1.09,1.09,0,0,0,1,.21c.42-.21.63-.64.42-1"/></svg>