<svg id="Layer_1" data-name="Layer 1" xmlns="http://www.w3.org/2000/svg" viewBox="0 0 41.03 41.03"><defs><style>.cls-1{fill:#fff;}</style></defs><path class="cls-1" d="M27.19,37.66a19.63,19.63,0,0,1-4.46-7.76,3.87,3.87,0,0,1,.21-3.72c.75-1.06,2-1.06,3.19-1.28a.49.49,0,0,1-.11.64.68.68,0,0,0,.11,1,.51.51,0,0,0,.74-.11.34.34,0,0,0,.11-.21c.11-.21-.11-.53-.11-.74s-.21-.43,0-.64c.64.21.75,1.17,1.39,1.38a.61.61,0,0,0,.74-.43.55.55,0,0,0-.32-.74c-.42-.21-.74-.21-1.06-.64a9.11,9.11,0,0,1,1.7.11c.32,0,.53-.53.32-.85a1.46,1.46,0,0,0-1-.21,2.12,2.12,0,0,1-1.17.21c.32-.32.85-.53,1.17-.85s.43-1,0-1.06c-1-.22-1,1.38-1.81,1.59,0-.64.32-1.06,0-1.59-.21-.32-.74-.54-.95-.11-.32.64.53,1.28.21,1.91C25.28,23.2,24.75,22,23.79,22c-.74,0-1.17,1.06-1.91,1.16a15.72,15.72,0,0,0,0-6.69c-.11-.32.32-.43.53-.43s.53.22.85.22a1.64,1.64,0,0,0,1.38-1A3.42,3.42,0,0,1,25.71,14c.53.21.42.74.63,1.17s.75.53,1,.1c.32-.63-.74-.85-.64-1.59a1.26,1.26,0,0,1,1.06.32c.32.11.85.32,1-.11s-.32-.85-.74-.85-1,.22-1.38-.1c.53-.54,1.59-.11,1.91-1,.1-.32-.21-.64-.64-.64s-1,.75-1.38,1.06c.11-.53.74-1.16.53-1.59a1.14,1.14,0,0,0-.85-.11c-.32.22-.32.64-.21,1.07s.1.95-.43.95c-.42-.32-.21-.85-.63-1.06a.51.51,0,0,0-.75.53c.11.43.64.64.85,1a3.43,3.43,0,0,1-1.49,1.06c-.53.11-1.38-.21-1.38-.85,0-1.17.11-2.34,1.17-3,.43-.22,1-.11,1.38-.43a1.66,1.66,0,0,0,.85-1.59,12.31,12.31,0,0,1,0-1.92c.11-1.27.75-2.44.22-3.61A1.89,1.89,0,0,0,23.47,2c-.63.21-1.06,1-1.7,1.38s-1.38.75-2,1.28a2,2,0,0,0-.85,2,2.81,2.81,0,0,1-.53,2.87,2.09,2.09,0,0,1-2.65.42,1.19,1.19,0,0,1-.85-.74.65.65,0,0,1,.53-.85h0c.32.1.32.21.42.53s.43.42.75.21.21-.64-.11-.85-.64-.11-.85-.42c.21-.54,1.06-.22,1.38-.64s-.21-.85-.64-.75-.63.75-1.16.85a4.56,4.56,0,0,1,.53-1.06c.1-.1.1-.21.1-.42,0-.43-.63-.53-1-.11s-.11,1-.32,1.38a3.67,3.67,0,0,1-.32-1,1.15,1.15,0,0,0-.64-.75.42.42,0,0,0-.53.53c.11.32,1.17.85,1.17,1.38-.43.22-.64-.42-1.06-.63-.32,0-.75.32-.64.63s.42.54.85.54a.54.54,0,0,1,.53.42c.11.21,0,.53,0,.74a3.26,3.26,0,0,0,1.91,3.09,1.06,1.06,0,0,1,.53,1.06c0,.42-.31.74-.42,1.17-1.49,3.5-.85,7.12.42,10.52a2.41,2.41,0,0,0-2.76.42A2.38,2.38,0,0,0,13,27.67c0,.21.11.21.11.42-.32.11-.21-.21-.42-.42s-.75-.53-1-.11c-.43.85.53.74.85,1.28-.43.21-.85-.11-1.28,0a.59.59,0,0,0-.53.63.59.59,0,0,0,.64.53c.21,0,.42-.21.64-.21s.42-.32.53-.1c-.43.42-1.17.95-.43,1.38.54.32.64-.85.85-1.17.54.1.32,1,.43,1.27a.8.8,0,0,0,1,.43c.42-.11.42-.64.21-1s-.32-.21-.53-.42-.32-.22-.22-.43c.43,0,.64.43,1.17.43a.47.47,0,0,0,.32-.85.86.86,0,0,0-.74-.22c-.32,0-.53,0-.64-.31a.86.86,0,0,1,.21-.54c.53-.53,1-1.06,1.81-1.06a2.7,2.7,0,0,1,2.23,1.6c2.34,3.4,4.15,7.22,7.65,9.56a1.09,1.09,0,0,0,1,.21c.42-.21.64-.64.42-1M20.51,40.5a20,20,0,1,1,20-20A20,20,0,0,1,20.51,40.5Z"/></svg>