<?xml version="1.0" encoding="utf-8"?>
<!-- Generator: Adobe Illustrator 25.4.0, SVG Export Plug-In . SVG Version: 6.00 Build 0)  -->
<svg version="1.1" id="Layer_1" xmlns="http://www.w3.org/2000/svg" xmlns:xlink="http://www.w3.org/1999/xlink" x="0px" y="0px"
	 viewBox="0 0 106 36" style="enable-background:new 0 0 106 36;" xml:space="preserve">
<style type="text/css">
	.st0{fill:#23262F;}
	.st1{fill-rule:evenodd;clip-rule:evenodd;fill:#1370F9;}
	.st2{clip-path:url(#SVGID_00000050651107009085282010000004273394098144614018_);}
	.st3{clip-path:url(#SVGID_00000133489527486365701790000001031370219254085266_);}
	.st4{fill:#3D009F;}
	.st5{fill:#3D0095;}
	.st6{fill:#3D0088;}
	.st7{fill:#3D2ED7;}
	.st8{fill:#3D0ECA;}
	.st9{fill:#3D008B;}
	.st10{fill:#3D00B8;}
	.st11{fill:#3D0086;}
	.st12{fill:#3D007F;}
	.st13{fill:#3D19C4;}
	.st14{fill:#3D008F;}
	.st15{fill:#3D00B9;}
	.st16{clip-path:url(#SVGID_00000010998416470723888580000005485629560492743098_);}
	.st17{fill:#3D00AD;}
	.st18{fill:url(#SVGID_00000046299422682743720420000016749893626976521399_);}
</style>
<g id="Layer_1_00000110470555335623192980000005777225539623907260_">
	<g id="Artwork_5">
		<g>
			<g>
				<g>
					<g>
						<g>
							<g>
								<path class="st0" d="M38.2,15v0.1c0,2-0.5,4.8-2.5,6.8c-1.9,1.9-4,2.2-6,2.2c-2.1,0-4.1-0.4-5.9-2.2c-1.1-1-2.2-2.8-2.2-5.4
									c0-2.2,0.9-4.3,2.3-5.8c1-1,3.1-2.5,6.7-2.5c3.2,0,5.6,1.2,7.2,3.8l-5.1,2c-0.2-0.5-0.8-1.3-2-1.3c-0.9,0-1.7,0.3-2.3,0.9
									c-0.7,0.7-1.2,1.8-1.2,3.1c0,1,0.3,1.7,0.9,2.3c0.6,0.6,1.3,0.8,2.1,0.8c0.6,0,1.9-0.1,2.4-1.7h-2.9l0.5-3.3L38.2,15z"/>
								<polygon class="st0" points="51.4,8.6 50.9,12.6 46.4,12.6 46.2,14.2 50.3,14.2 49.9,18 45.8,18 45.6,19.7 50.2,19.7 
									49.7,23.7 39.6,23.7 41.5,8.6 								"/>
								<path class="st0" d="M64.5,9L64,14.3c-1-0.8-1.9-1.2-3-1.2c-1.8,0-3.3,1.5-3.3,3.4c0,1.5,1.3,2.7,2.9,2.7c1.1,0,2-0.4,3-1.3
									l-0.7,5.5c-1.5,0.5-2.4,0.7-3.4,0.7c-4.2,0-7.2-3.2-7.2-7.5c0-4.8,3.6-8.4,8.3-8.4C61.9,8.3,63.2,8.5,64.5,9"/>
								<path class="st0" d="M72.6,8.6l-0.5,3.9c-0.1,0.9-0.3,1.8-0.5,2.6l0.2,0c0.3-0.8,0.6-1.4,1-1.9l0.5-0.8l2.4-3.8H82l-5.9,7.7
									l3.8,7.4h-5.8l-1.9-4.3c-0.4-0.9-0.6-1.4-0.8-2.2l-0.2,0v0.5c0,0.6,0,1.2-0.1,1.7l-0.5,4.3h-5.5l1.9-15.1H72.6z"/>
								<path class="st0" d="M98.5,16.1c0,4.6-3.6,8.1-8.3,8.1c-4.8,0-8.4-3.4-8.4-7.7c0-4.6,3.7-8.1,8.3-8.1c2.2,0,4.3,0.7,5.9,2.1
									C97.6,11.7,98.5,13.7,98.5,16.1 M93,16.2c0-1.6-1.2-2.9-2.7-2.9c-1.7,0-3,1.4-3,3.2c0,1.7,1.1,2.9,2.7,2.9
									C91.7,19.4,93,18,93,16.2"/>
								<path class="st0" d="M105.6,21.5c0,1.4-1.3,2.6-3.1,2.6c-1.7,0-2.9-1-2.9-2.4c0-1.4,1.4-2.7,3-2.7S105.6,20.1,105.6,21.5"/>
							</g>
						</g>
					</g>
				</g>
			</g>
		</g>
	</g>
</g>
<g>
	<g id="Layer_1_00000085210544630627940320000000039470875989465511_">
		<path class="st1" d="M15.7,34.2c-1.9-2.1-3.3-4.5-4.1-7.2c-0.3-1.2-0.5-2.4,0.2-3.4c0.7-0.9,1.9-1,3-1.2c0.1,0.2,0.1,0.4-0.1,0.6
			c-0.2,0.3-0.2,0.7,0.1,0.9c0.2,0.2,0.6,0.1,0.7-0.1c0,0,0.1-0.1,0.1-0.2c0.1-0.2-0.1-0.5-0.1-0.7c0-0.2-0.2-0.4,0-0.6
			c0.6,0.2,0.6,1.1,1.2,1.3c0.3,0.1,0.6-0.1,0.7-0.4c0.1-0.3,0-0.6-0.3-0.7c-0.4-0.2-0.7-0.2-1-0.6c0.7-0.1,1,0.1,1.5,0.1
			c0.3,0,0.5-0.5,0.3-0.8c-0.2-0.2-0.6-0.2-0.9-0.2s-0.7,0.3-1,0.2c0.3-0.2,0.8-0.5,1.1-0.8c0.3-0.2,0.4-0.9,0-1
			c-0.9-0.2-0.9,1.2-1.7,1.4c0-0.6,0.3-1,0-1.5c-0.2-0.3-0.7-0.5-0.9-0.1c-0.3,0.6,0.4,1.2,0.2,1.8c-0.8-0.3-1.3-1.4-2.2-1.4
			c-0.7,0-1,0.9-1.7,1.1c0.5-2.1,0.4-4.1,0-6.2c-0.1-0.3,0.3-0.4,0.5-0.4c0.3,0,0.5,0.2,0.8,0.2c0.6,0,1-0.4,1.3-0.9s0.5-1,1-1.3
			c0.4,0.2,0.4,0.7,0.6,1.1c0.2,0.4,0.6,0.5,0.8,0.1c0.3-0.6-0.7-0.8-0.6-1.4c0.4-0.1,0.7,0.2,1,0.3c0.3,0.1,0.7,0.3,0.9-0.1
			c0.2-0.4-0.3-0.8-0.7-0.8c-0.4,0-0.9,0.2-1.3-0.1c0.5-0.5,1.5-0.1,1.7-0.8c0.1-0.3-0.2-0.6-0.6-0.6c-0.5,0-0.9,0.7-1.3,0.9
			c0.1-0.5,0.7-1.1,0.5-1.5c-0.1-0.4-0.5-0.5-0.7-0.4c-0.3,0.2-0.3,0.6-0.2,1c0.1,0.3,0.1,0.8-0.4,0.9c-0.4-0.3-0.2-0.8-0.5-1
			c-0.3-0.2-0.8,0.1-0.7,0.5c0.1,0.4,0.6,0.6,0.8,0.9c-0.4,0.4-0.8,0.8-1.4,0.9c-0.6,0.1-1.2-0.2-1.3-0.8c0-1.1,0.1-2.2,1.1-2.8
			c0.4-0.2,0.9-0.1,1.2-0.3c0.5-0.3,0.8-0.9,0.8-1.5s-0.1-1.2,0-1.8c0.1-1.1,0.7-2.3,0.2-3.4c-0.4-0.8-1.3-1-2-0.8
			c-0.6,0.2-1,0.8-1.5,1.2C10.5,2.7,9.8,3,9.2,3.4c-0.6,0.5-1,1.1-0.8,1.9c0.3,1,0.2,1.9-0.5,2.6C7.1,8.7,6.2,8.8,5.2,8.4
			C4.9,8.3,4.6,8.1,4.5,7.7C4.4,7.4,4.6,7,4.9,6.9c0,0,0,0,0.1,0C5.3,7,5.2,7.2,5.4,7.4c0.2,0.2,0.4,0.4,0.7,0.2
			C6.4,7.4,6.2,7,5.9,6.8C5.7,6.7,5.4,6.7,5.2,6.5C5.4,6,6.1,6.3,6.4,5.9c0.3-0.3-0.1-0.8-0.6-0.8C5.5,5.2,5.3,5.9,4.8,5.9
			C4.9,5.5,5.1,5.3,5.3,5c0.1-0.1,0.1-0.2,0.1-0.4c-0.1-0.5-0.7-0.5-1-0.2C4.3,4.8,4.5,5.3,4.2,5.7C4,5.5,4,5.2,3.9,4.9
			C3.8,4.6,3.6,4.2,3.3,4.2S2.7,4.3,2.9,4.7C3,5.1,3.9,5.5,3.9,6C3.5,6.1,3.3,5.6,3,5.4C2.7,5.4,2.4,5.5,2.4,5.8c0,0.1,0,0.1,0,0.2
			c0.1,0.3,0.4,0.5,0.8,0.5c0.2,0,0.5,0.1,0.5,0.4c0.1,0.2,0,0.4,0,0.7c0,1.3,0.6,2.3,1.7,2.8c0.4,0.2,0.5,0.6,0.5,1
			c0,0.4-0.3,0.7-0.4,1.1C4,15.6,4.6,19,5.8,22.2c-0.9-0.4-1.8-0.3-2.6,0.3c-0.7,0.6-0.8,1.5-0.6,2.3c0,0.2,0.1,0.2,0.1,0.4
			c-0.3,0.1-0.2-0.2-0.4-0.4c-0.2-0.3-0.7-0.5-0.9-0.1c-0.4,0.8,0.5,0.7,0.8,1.2c-0.4,0.2-0.8-0.1-1.2-0.1c-0.3,0-0.5,0.3-0.5,0.6
			c0,0,0,0,0,0C0.5,26.8,0.7,27,1,27c0.2,0,0.4-0.2,0.6-0.2s0.5-0.3,0.7-0.1C1.9,27,1.2,27.5,1.9,28c0.5,0.3,0.6-0.8,0.8-1.1
			C3.1,27,2.9,27.7,3,28.1c0.1,0.3,0.4,0.5,0.7,0.4c0,0,0.1,0,0.1,0c0.3-0.2,0.4-0.5,0.2-0.8c0,0,0,0,0-0.1
			c-0.1-0.2-0.3-0.2-0.5-0.4c-0.1-0.1-0.3-0.2-0.2-0.4c0.4,0,0.6,0.4,1,0.4c0.3,0,0.5-0.2,0.5-0.5c0-0.1-0.1-0.2-0.1-0.3
			c-0.2-0.2-0.4-0.2-0.7-0.2c-0.3,0-0.5,0-0.6-0.3c0-0.2,0.1-0.4,0.2-0.5c0.4-0.5,0.9-1,1.6-1c1,0,1.6,0.7,2.1,1.5
			c2.1,3.1,3.7,6.7,7,8.9c0.3,0.2,0.6,0.3,0.9,0.2C15.7,34.8,15.9,34.4,15.7,34.2z"/>
		<g>
			<defs>
				<path id="SVGID_1_" d="M15.7,34.2c-1.9-2.1-3.3-4.5-4.1-7.2c-0.3-1.2-0.5-2.4,0.2-3.4c0.7-0.9,1.9-1,3-1.2
					c0.1,0.2,0.1,0.4-0.1,0.6c-0.2,0.3-0.2,0.7,0.1,0.9c0.2,0.2,0.6,0.1,0.7-0.1c0,0,0.1-0.1,0.1-0.2c0.1-0.2-0.1-0.5-0.1-0.7
					c0-0.2-0.2-0.4,0-0.6c0.6,0.2,0.6,1.1,1.2,1.3c0.3,0.1,0.6-0.1,0.7-0.4c0.1-0.3,0-0.6-0.3-0.7c-0.4-0.2-0.7-0.2-1-0.6
					c0.3,0,0.6,0,0.9,0c0.2,0,0.4,0.1,0.6,0c0.3,0,0.5-0.5,0.3-0.8s-0.6-0.2-0.9-0.2s-0.7,0.3-1,0.2c0.3-0.2,0.8-0.5,1.1-0.8
					c0.3-0.2,0.4-0.9,0-1c-0.9-0.2-0.9,1.2-1.7,1.4c0-0.6,0.3-1,0-1.5c-0.2-0.3-0.7-0.5-0.9-0.1c-0.3,0.6,0.4,1.2,0.2,1.8
					c-0.8-0.3-1.3-1.4-2.2-1.4c-0.7,0-1,0.9-1.7,1.1c0.5-2.1,0.4-4.1,0-6.2c-0.1-0.3,0.3-0.4,0.5-0.4c0.3,0,0.5,0.2,0.8,0.2
					c0.6,0,1-0.4,1.3-0.9c0.3-0.5,0.5-1,1-1.3c0.4,0.2,0.4,0.7,0.6,1.1s0.6,0.5,0.8,0.1c0.3-0.6-0.7-0.8-0.6-1.4
					c0.4-0.1,0.7,0.2,1,0.3s0.7,0.3,0.9-0.1c0.2-0.4-0.3-0.8-0.7-0.8c-0.1,0-0.3,0-0.4,0c-0.3,0-0.6,0.1-0.9-0.1
					c0.5-0.5,1.5-0.1,1.7-0.8c0.1-0.3-0.2-0.6-0.6-0.6c-0.5,0-0.9,0.7-1.3,0.9c0.1-0.5,0.7-1.1,0.5-1.5c-0.1-0.4-0.5-0.5-0.7-0.4
					c-0.3,0.2-0.3,0.6-0.2,1s0.1,0.8-0.4,0.9c-0.4-0.3-0.2-0.8-0.5-1c-0.3-0.2-0.8,0.1-0.7,0.5c0.1,0.4,0.6,0.6,0.8,0.9
					c-0.4,0.4-0.8,0.8-1.4,0.9c-0.6,0.1-1.2-0.2-1.3-0.8c0-1.1,0.1-2.2,1.1-2.8c0.4-0.2,0.9-0.1,1.2-0.3c0.5-0.3,0.8-0.9,0.8-1.5
					c0.1-0.6,0-1.2,0-1.8c0.1-1.1,0.7-2.3,0.2-3.4c-0.4-0.8-1.3-1-2-0.8c-0.6,0.2-1,0.8-1.5,1.2C10.5,2.7,9.8,3,9.2,3.4
					c-0.6,0.5-1,1.1-0.8,1.9c0.3,1,0.2,1.9-0.5,2.6C7.1,8.7,6.2,8.8,5.2,8.4C4.9,8.3,4.6,8.1,4.5,7.7C4.4,7.4,4.6,7,4.9,6.9
					c0,0,0,0,0.1,0C5.3,7,5.2,7.2,5.4,7.4c0.2,0.2,0.4,0.4,0.7,0.2C6.4,7.4,6.2,7,5.9,6.8C5.7,6.7,5.4,6.7,5.2,6.5
					C5.4,6,6.1,6.3,6.4,5.9c0.3-0.3-0.1-0.8-0.6-0.8C5.5,5.2,5.3,5.9,4.8,5.9C4.9,5.5,5.1,5.3,5.3,5c0.1-0.1,0.1-0.2,0.1-0.4
					c-0.1-0.5-0.7-0.5-1-0.2C4.3,4.8,4.5,5.3,4.2,5.7C4,5.5,4,5.2,3.9,4.9C3.8,4.6,3.6,4.2,3.3,4.2S2.7,4.3,2.9,4.7
					C3,5.1,3.9,5.5,3.9,6C3.5,6.1,3.3,5.6,3,5.4C2.7,5.4,2.4,5.5,2.4,5.8c0,0.1,0,0.1,0,0.2c0.1,0.3,0.4,0.5,0.8,0.5
					c0.2,0,0.5,0.1,0.5,0.4c0.1,0.2,0,0.4,0,0.7c0,1.3,0.6,2.3,1.7,2.8c0.4,0.2,0.5,0.6,0.5,1c0,0.4-0.3,0.7-0.4,1.1
					C4,15.6,4.6,19,5.8,22.2c-0.9-0.4-1.8-0.3-2.6,0.3c-0.7,0.6-0.8,1.5-0.6,2.3c0,0.2,0.1,0.2,0.1,0.4c-0.3,0.1-0.2-0.2-0.4-0.4
					c-0.2-0.3-0.7-0.5-0.9-0.1c-0.4,0.8,0.5,0.7,0.8,1.2c-0.2,0.1-0.5,0.1-0.7,0c-0.2,0-0.3-0.1-0.5-0.1c-0.3,0-0.5,0.3-0.5,0.6
					C0.5,26.8,0.7,27,1,27c0.2,0,0.4-0.2,0.6-0.2c0.2-0.1,0.5-0.3,0.7-0.1C1.9,27,1.2,27.5,1.9,28c0.5,0.3,0.6-0.8,0.8-1.1
					C3.1,27,2.9,27.7,3,28.1c0.1,0.3,0.4,0.5,0.7,0.4c0,0,0.1,0,0.1,0c0.3-0.2,0.4-0.5,0.2-0.8c0,0,0,0,0-0.1
					c-0.1-0.2-0.3-0.2-0.5-0.4c-0.1-0.1-0.3-0.2-0.2-0.4c0.2,0,0.4,0.1,0.5,0.2c0.1,0.1,0.3,0.2,0.5,0.2c0.3,0,0.5-0.2,0.5-0.5
					c0-0.1-0.1-0.2-0.1-0.3c-0.2-0.2-0.4-0.2-0.7-0.2c-0.3,0-0.5,0-0.6-0.3c0-0.2,0.1-0.4,0.2-0.5c0.4-0.5,0.9-1,1.6-1
					c1,0,1.6,0.7,2.1,1.5c2.1,3.1,3.7,6.7,7,8.9c0.3,0.2,0.6,0.3,0.9,0.2C15.7,34.8,15.9,34.4,15.7,34.2"/>
			</defs>
			<clipPath id="SVGID_00000108307812104773708200000006341806945528378776_">
				<use xlink:href="#SVGID_1_"  style="overflow:visible;"/>
			</clipPath>
			<g style="clip-path:url(#SVGID_00000108307812104773708200000006341806945528378776_);">
				<g>
					<defs>
						<polyline id="SVGID_00000062186118225994581550000001551228591227188867_" points="-1.1,-20.8 36.7,-20.5 36.4,17.3 -1.3,17 
							-1.1,-20.8 						"/>
					</defs>
					<clipPath id="SVGID_00000024715070993725468830000012240504273773593495_">
						<use xlink:href="#SVGID_00000062186118225994581550000001551228591227188867_"  style="overflow:visible;"/>
					</clipPath>
					<g style="clip-path:url(#SVGID_00000024715070993725468830000012240504273773593495_);">
						<path class="st4" d="M13.1,13.5c0,0.2,0,0.3,0,0.5c0.1-0.1,0.2-0.1,0.3-0.2c0,0,0,0,0,0c0-0.1,0.1-0.2,0.1-0.2
							C13.5,13.5,13.3,13.5,13.1,13.5 M12.1,13.4c-1.8,0-3.6,0.4-5.2,1.3c0.7,0.1,1.3,0.2,2,0.2c0.7,0,1.3-0.1,2-0.2
							c0-0.2,0.2-0.3,0.5-0.3c0,0,0,0,0.1,0c0.1,0,0.2,0.1,0.3,0.1c0.2-0.1,0.4-0.1,0.6-0.2C12.3,14,12.2,13.7,12.1,13.4"/>
						<path class="st5" d="M4.6,16.7C4.6,16.7,4.6,16.7,4.6,16.7L4.6,16.7L4.6,16.7"/>
						<path class="st6" d="M4.6,16.7L4.6,16.7c0,0.1,0,0.2,0,0.3L5,17C4.8,16.9,4.7,16.8,4.6,16.7"/>
						<path class="st4" d="M4.9,13.7c0,0.1-0.1,0.2-0.1,0.3c0.1,0.1,0.3,0.1,0.5,0.2c0.1-0.1,0.3-0.2,0.4-0.3
							C5.5,13.9,5.2,13.8,4.9,13.7 M14.7,10.2c0.1,0.3,0,0.8-0.4,0.8c0,0-0.1-0.1-0.1-0.1c-0.1,0.1-0.2,0.3-0.4,0.4c0,0,0,0,0,0.1
							c-0.2,0.2-0.5,0.4-0.7,0.6c0,0.1,0,0.1,0,0.2c0.5,0,0.9,0.1,1.4,0.2c0-0.7,0.2-1.4,0.4-2.1C14.9,10.3,14.8,10.3,14.7,10.2
							 M3.4,5.8C3.4,5.9,3.4,5.9,3.4,5.8L3.4,5.8L3.4,5.8 M5.6,5.3C5.5,5.4,5.4,5.5,5.3,5.6c0.2,0,0.4-0.1,0.6-0.2c0,0,0,0,0-0.1
							C5.8,5.4,5.7,5.3,5.6,5.3 M4.6,5.2c-0.1,0-0.2,0-0.3,0c0,0.2,0,0.4-0.1,0.6C4.1,5.6,4,5.4,4,5.2c-0.1,0-0.3,0.1-0.4,0.1
							c0,0,0,0,0,0c0.2,0.1,0.3,0.3,0.4,0.5c0.3,0,0.7-0.1,1-0.2C5,5.5,5.1,5.4,5.2,5.2C5,5.2,4.8,5.2,4.6,5.2 M13.8,5.2
							c0.2,0.3,0.4,0.6,0.6,0.9l0.1,0c0-0.1,0-0.2,0-0.4C14.2,5.6,14,5.4,13.8,5.2 M8.4,4.9c0,0.1,0,0.3,0.1,0.4
							c0,0.2,0.1,0.3,0.1,0.5C8.6,5.9,8.7,5.9,8.7,6l0,0l0,0c0.4,0.4,0.8,0.7,1.2,0.9c0.1-0.1,0.2-0.2,0.2-0.3
							C9.5,6.2,8.9,5.6,8.4,4.9 M14.5,3.3c0.1,0.1,0.2,0.2,0.2,0.2c0,0,0,0,0-0.1C14.7,3.4,14.6,3.3,14.5,3.3"/>
						<path class="st7" d="M5.3,14.2c-0.2,0.1-0.4,0.3-0.6,0.4c0,0.2-0.1,0.3-0.1,0.5c0.3,0.2,0.6,0.4,0.8,0.6c0.5-0.4,1-0.7,1.5-1
							c-0.2,0-0.4-0.1-0.6-0.2C6,14.5,5.6,14.4,5.3,14.2 M11.6,12.2c-0.7,0-1.3,0.1-2,0.2c-0.1,0.1-0.2,0.2-0.3,0.3
							c0.1,0,0.2,0,0.3,0c0.8,0,1.6-0.1,2.3-0.3l0-0.1C11.9,12.4,11.7,12.3,11.6,12.2 M15,9.2C15,9.2,14.9,9.2,15,9.2
							c-0.4,0.2-0.4,0.7-0.3,1c0.1-0.1,0.1-0.3,0.1-0.4C14.9,9.5,15,9.4,15,9.2 M3.9,8.9L3.9,8.9c0.2,0.5,0.5,0.9,1,1.2
							C4.9,9.9,5,9.6,5,9.4C5,9.2,5,9.1,5,9C4.6,8.9,4.3,8.9,3.9,8.9 M9.9,6.9C9.7,7.2,9.4,7.5,9,7.7c0.5,0.4,0.9,1,1.1,1.7
							c0.2,0,0.5,0,0.7,0c0.2,0,0.3,0,0.5,0c-0.3-0.3-0.5-0.7-0.7-1.1c0,0,0-0.1,0-0.1c0,0,0,0,0,0c0,0,0,0,0,0
							c0.4,0.3,0.9,0.6,1.4,0.7c0.1-0.1,0.1-0.1,0.2-0.1c0.4-0.2,0.9-0.1,1.2-0.3C13.8,8.4,14,8.2,14.1,8c-0.6-0.1-1.3-0.2-1.9-0.4
							C11.4,7.6,10.7,7.3,9.9,6.9 M2.8,5.4c-0.3,0-0.5,0.2-0.5,0.5l0.1,0c0.2-0.2,0.4-0.3,0.6-0.4c0,0-0.1,0-0.1-0.1
							C2.9,5.4,2.9,5.4,2.8,5.4 M6,5.2C5.9,5.2,5.9,5.2,6,5.2L6,5.2C5.9,5.2,5.9,5.3,5.9,5.4l0.1,0c0.1,0,0.2-0.1,0.4-0.1
							C6.2,5.2,6.1,5.2,6,5.2 M3.7,4.5c-0.3,0-0.6,0-0.9,0c0,0.1,0,0.1,0,0.2c0.1,0.2,0.4,0.4,0.6,0.6c0,0,0,0,0.1,0
							c0.1-0.2,0.2-0.4,0.3-0.5C3.8,4.7,3.8,4.6,3.7,4.5 M5,4.3c-0.1,0-0.2,0.1-0.4,0.1c0,0,0,0,0,0c0.1,0,0.1,0,0.2,0
							c0.1,0,0.3,0,0.4,0.1c0.1,0,0.2,0.1,0.3,0.1C5.4,4.4,5.2,4.3,5,4.3 M12.8,1c0,0-0.1,0-0.1,0c-0.3,0.1-0.5,0.2-0.7,0.4
							c0.4,0.2,0.8,0.3,1.3,0.4C13,1.6,12.9,1.3,12.8,1"/>
						<path class="st5" d="M10.9,14.8c-0.6,0.1-1.3,0.2-2,0.2c-0.7,0-1.3-0.1-2-0.2c-0.5,0.3-1,0.6-1.5,1c0.1,0.1,0.2,0.2,0.3,0.3
							c0.9-0.4,2-0.7,3-0.6c0.8,0,1.6,0.1,2.3,0.4C11.1,15.5,11,15.2,10.9,14.8C10.9,14.8,10.9,14.8,10.9,14.8 M12.4,14.3
							c-0.2,0.1-0.4,0.1-0.6,0.2c0.1,0.1,0.3,0.1,0.4,0.1l0,0c0.1,0,0.2,0,0.2,0C12.5,14.5,12.4,14.4,12.4,14.3 M13.5,13.8
							c-0.1,0.1-0.2,0.1-0.3,0.2c0,0.1,0,0.2,0,0.3C13.3,14.1,13.4,14,13.5,13.8"/>
						<path class="st8" d="M4.7,15.2c-0.1,0.5-0.1,1-0.1,1.5c0.3-0.3,0.6-0.6,0.9-0.9C5.2,15.5,4.9,15.4,4.7,15.2"/>
						<path class="st9" d="M5.5,15.8c-0.3,0.3-0.6,0.6-0.9,0.9l0,0.1l0,0C5,16.5,5.4,16.2,5.8,16C5.7,15.9,5.6,15.9,5.5,15.8"/>
						<path class="st10" d="M11.2,17c-0.2,0-0.3,0.1-0.5,0.1l0.5,0L11.2,17"/>
						<path class="st11" d="M8.8,15.4c-1,0-2.1,0.2-3,0.6c0.3,0.3,0.6,0.6,0.9,1l0,0l4,0c0.2,0,0.3-0.1,0.5-0.1
							c0-0.4-0.1-0.8-0.1-1.2C10.4,15.5,9.6,15.4,8.8,15.4"/>
						<path class="st12" d="M5.8,16c-0.4,0.2-0.8,0.4-1.2,0.7C4.7,16.8,4.8,16.9,5,17l1.8,0l0,0C6.4,16.7,6.1,16.3,5.8,16"/>
						<path class="st5" d="M4.9,14.1c-0.1,0.2-0.1,0.4-0.1,0.6c0.2-0.2,0.4-0.3,0.6-0.4C5.2,14.2,5,14.1,4.9,14.1 M13.8,10
							c-0.1,0.3-0.3,0.6-0.3,1c0.2,0.1,0.3,0.2,0.4,0.4c0.1-0.1,0.3-0.3,0.4-0.4C14,10.7,14.2,10.3,13.8,10L13.8,10 M10.8,9.4
							c-0.2,0-0.5,0-0.7,0c0.1,0.4,0.2,0.8,0.2,1.2c0,0.7-0.2,1.3-0.7,1.9c0.7-0.1,1.3-0.2,2-0.2c-0.2-0.1-0.4-0.4-0.4-0.7
							c0-0.7,0-1.4,0.3-1.9c-0.1-0.1-0.2-0.2-0.2-0.2C11.2,9.4,11,9.4,10.8,9.4 M5,9c0,0.1,0,0.3,0,0.4c0,0.2,0,0.5-0.1,0.7
							c0.1,0.1,0.3,0.2,0.5,0.3c0.4,0.2,0.5,0.6,0.5,1c0,0.1,0,0.3-0.1,0.4c0.5-0.1,1.1-0.5,1.1-1.2C6.8,9.8,6.1,9.2,5,9 M10.2,6.6
							C10.1,6.7,10,6.8,9.9,6.9c0.7,0.4,1.5,0.6,2.3,0.7C11.5,7.4,10.8,7.1,10.2,6.6 M6.4,5.9C6.4,6,6.3,6,6.3,6.1
							C6.3,6,6.4,6,6.4,5.9L6.4,5.9 M3.1,5.5C2.8,5.6,2.6,5.7,2.4,5.9c0.1,0,0.3,0,0.4,0c0.2,0,0.4,0,0.6,0c0,0,0,0,0,0
							C3.3,5.7,3.2,5.6,3.1,5.5 M5.9,5.4C5.9,5.4,5.9,5.4,5.9,5.4L5.9,5.4L5.9,5.4 M3.5,5.3C3.5,5.3,3.5,5.3,3.5,5.3L3.5,5.3
							C3.5,5.3,3.5,5.3,3.5,5.3 M11.9,1.5c-0.3,0.3-0.6,0.6-0.9,0.8l0,0c0.5,1.7,1.7,3.1,3.3,3.8c-0.2-0.3-0.4-0.6-0.6-0.9
							c0.2,0.2,0.5,0.4,0.7,0.6c0-0.2,0-0.4,0-0.6c0-0.6,0.2-1.1,0.3-1.7c-0.1-0.1-0.2-0.2-0.2-0.2c-0.5-0.4-1-0.9-1.3-1.4
							C12.8,1.8,12.3,1.7,11.9,1.5"/>
						<path class="st13" d="M14.6,12.4c0,0,0,0.1,0,0.1c0.1,0.1,0.2,0.1,0.2,0.2c0.1-0.1,0.1-0.2,0.2-0.2
							C14.9,12.5,14.7,12.5,14.6,12.4 M15.9,10.4c-0.1,0.1-0.2,0.2-0.3,0.3c0.1,0.1,0.2,0.1,0.3,0.2C15.9,10.7,15.9,10.5,15.9,10.4
							 M15.5,9.3c-0.2,0.3-0.4,0.7-0.5,1.1c0.1,0.1,0.2,0.1,0.3,0.2c0.2-0.3,0.4-0.7,0.3-1C15.6,9.5,15.6,9.4,15.5,9.3 M13.2,1.5
							l0.2,0.3l0.1,0C13.5,1.8,13.3,1.7,13.2,1.5"/>
						<path class="st14" d="M16.1,10.3c-0.1,0-0.1,0.1-0.2,0.1c0,0.2,0,0.3,0,0.5c-0.1-0.1-0.2-0.1-0.3-0.2
							c-0.1,0.2-0.3,0.3-0.5,0.4c0-0.2,0.1-0.4,0.2-0.6c-0.1-0.1-0.2-0.1-0.3-0.2c-0.2,0.7-0.4,1.4-0.4,2.1c0.1,0,0.3,0.1,0.4,0.1
							c0.2-0.3,0.4-0.6,0.6-0.9c-0.1,0-0.3-0.1-0.4-0.1c0.2-0.2,0.3-0.3,0.6-0.3c0.1-0.2,0.2-0.4,0.2-0.6
							C16,10.5,16.1,10.4,16.1,10.3 M14.4,6.1l0.1,0.2L14.4,6.1L14.4,6.1 M10.4,2.7C10,2.9,9.6,3.2,9.2,3.4C8.7,3.8,8.4,4.3,8.4,4.9
							c0.5,0.7,1.1,1.2,1.8,1.7c0.3-0.3,0.4-0.7,0.6-1.1C11,4.6,10.9,3.6,10.4,2.7 M13.4,1.8c0.3,0.5,0.7,1,1.1,1.4
							c0.1,0.1,0.2,0.1,0.2,0.2c0-0.2,0.1-0.5,0.1-0.7c-0.5-0.2-0.9-0.5-1.3-0.9L13.4,1.8"/>
						<path class="st15" d="M15,12.5c-0.1,0.1-0.1,0.2-0.2,0.2c0.1,0.2,0.2,0.5,0.3,0.8c0.1,0.2,0.3,0.3,0.5,0.3
							c0.2,0,0.3-0.1,0.4-0.2c0.2-0.4-0.2-0.6-0.5-1C15.3,12.6,15.1,12.6,15,12.5 M14.3,7.6c-0.5,0.1-1.1,0.1-1.6,0.1
							c-0.2,0-0.3,0-0.5,0C12.8,7.8,13.5,8,14.1,8C14.2,7.9,14.3,7.7,14.3,7.6 M5,4.2c-0.1,0-0.2,0-0.3,0.1C4.8,4.3,4.9,4.3,5,4.2
							L5,4.2 M3.1,4.2c-0.2,0-0.3,0.2-0.3,0.4c0.3,0,0.6,0,0.9,0c0-0.1-0.1-0.1-0.2-0.2C3.4,4.4,3.2,4.4,3,4.5c0,0,0,0,0,0
							c0,0,0,0,0,0c0,0,0,0,0-0.1C3,4.3,3,4.3,3.1,4.2 M13.2,0.9c-0.2,0-0.3,0-0.5,0.1c0.1,0.3,0.3,0.6,0.5,0.8c0.1,0,0.1,0,0.2,0
							l-0.2-0.3c0.1,0.1,0.2,0.2,0.3,0.3l0.1,0c0.3,0,0.6,0,1-0.1C14.3,1.2,13.8,0.9,13.2,0.9"/>
						<path class="st6" d="M16.5,11.6c-0.1,0-0.3,0-0.4,0c-0.1,0-0.3,0-0.4,0c0,0-0.1,0-0.1,0c-0.2,0.3-0.4,0.6-0.6,0.9
							c0.2,0,0.3,0.1,0.5,0.1c-0.1-0.1-0.2-0.3-0.1-0.5c0,0,0.1,0,0.1,0c0.3,0,0.6,0.2,0.8,0.3c0.2,0.1,0.3,0.1,0.5,0.1
							c0.2,0,0.3-0.1,0.4-0.2C17.4,12,16.9,11.7,16.5,11.6L16.5,11.6 M16.4,10.2L16.4,10.2c-0.1,0-0.2,0-0.3,0.1
							c0,0.1-0.1,0.3-0.1,0.4c-0.1,0.2-0.1,0.4-0.2,0.6c0.5-0.1,1-0.1,1.2-0.6C17.1,10.4,16.7,10.2,16.4,10.2 M3.2,4.2
							c0,0-0.1,0-0.1,0C3,4.2,3,4.3,2.9,4.4c0,0,0,0,0,0.1c0,0,0,0,0,0c0,0,0,0,0,0c0.2-0.1,0.4-0.1,0.6-0.2
							C3.5,4.2,3.4,4.2,3.3,4.2C3.3,4.2,3.3,4.2,3.2,4.2 M11.1,2.3c-0.2,0.2-0.4,0.3-0.7,0.4c0.5,0.9,0.6,1.9,0.3,2.8
							c-0.1,0.4-0.3,0.8-0.6,1.1c0.6,0.4,1.3,0.8,2.1,1c0.2,0,0.3,0,0.5,0c0.5,0,1.1,0,1.6-0.1c0.1-0.2,0.1-0.4,0.1-0.6
							c0-0.2,0-0.5,0-0.7l-0.1-0.2C12.8,5.3,11.6,3.9,11.1,2.3 M13.2,1.8c0.4,0.5,0.8,1,1.3,1.4c-0.4-0.4-0.8-0.9-1.1-1.4
							C13.4,1.8,13.3,1.8,13.2,1.8 M14.6,1.7c-0.3,0.1-0.6,0.1-1,0.1l-0.1,0c0.4,0.3,0.8,0.6,1.3,0.9C14.8,2.4,14.8,2.1,14.6,1.7
							C14.6,1.8,14.6,1.8,14.6,1.7"/>
						<path class="st13" d="M13,12.2c-0.1,0.1-0.3,0.1-0.5,0.2c-0.1,0-0.2,0-0.2,0c0,0-0.1,0-0.1,0L12,12.5c0,0.3,0.1,0.6,0.1,0.9
							l0.1,0c0.3,0,0.6,0,0.9,0c0-0.4,0-0.8,0.1-1.2L13,12.2"/>
						<path class="st14" d="M12.2,13.4L12.2,13.4c0,0.3,0.1,0.6,0.2,0.9c0.3-0.1,0.5-0.2,0.8-0.3c0-0.2,0-0.3,0-0.5
							C12.8,13.5,12.5,13.4,12.2,13.4"/>
						<path class="st14" d="M13.2,12.1c-0.1,0.1-0.2,0.1-0.3,0.2l0.2,0C13.2,12.2,13.2,12.1,13.2,12.1"/>
						<path class="st15" d="M12,12.4l0,0.1l0.2-0.1C12.1,12.4,12,12.4,12,12.4 M10.7,8.2C10.7,8.2,10.7,8.2,10.7,8.2
							C10.6,8.2,10.6,8.3,10.7,8.2c0.1,0.5,0.4,0.9,0.7,1.2c0.1,0,0.2,0,0.4,0C11.8,9.3,12,9.1,12.2,9C11.7,8.8,11.2,8.5,10.7,8.2
							C10.7,8.2,10.7,8.2,10.7,8.2"/>
						<path class="st6" d="M13.1,14c-0.2,0.1-0.5,0.2-0.8,0.3c0,0.1,0.1,0.2,0.1,0.3c0.3-0.1,0.5-0.2,0.7-0.4
							C13.2,14.2,13.2,14.1,13.1,14"/>
						<path class="st6" d="M13.6,9.9c-0.3,0-0.5,0.2-0.5,0.5c0,0,0,0.1,0,0.1c0.1,0.2,0.2,0.3,0.3,0.4c0.1-0.3,0.2-0.7,0.3-1
							C13.7,10,13.7,9.9,13.6,9.9 M11.3,9.4c0.1,0.1,0.2,0.2,0.2,0.2c0-0.1,0.1-0.2,0.1-0.2C11.6,9.4,11.5,9.4,11.3,9.4"/>
						<path class="st13" d="M8.5,12.7c-1,0.3-1.9,0.7-2.8,1.2C6,14,6.2,14,6.4,14c1.1,0,2.1-0.4,2.9-1.2C9.1,12.8,8.8,12.8,8.5,12.7
							 M8.4,7.2C8.3,7.4,8.2,7.6,8.1,7.7c0,0.1,0.1,0.3,0.1,0.4C8.5,8,8.8,7.9,9,7.7C8.8,7.5,8.6,7.4,8.4,7.2"/>
						<path class="st14" d="M5.6,11.9c-0.1,0.2-0.2,0.3-0.2,0.5c-0.2,0.4-0.3,0.8-0.5,1.3c0.3,0.1,0.5,0.2,0.8,0.3
							c0.9-0.5,1.8-0.9,2.8-1.2c-0.5-0.1-1-0.2-1.5-0.3C6.5,12.3,6.1,12.1,5.6,11.9 M8.1,7.7C7.9,8,7.6,8.2,7.4,8.4
							c0.3-0.1,0.6-0.1,0.8-0.2C8.2,8,8.1,7.9,8.1,7.7 M5.9,5.4C5.7,5.5,5.5,5.6,5.3,5.6C5.2,5.8,5,5.9,4.8,5.9c0-0.1,0-0.2,0.1-0.2
							c-0.3,0.1-0.7,0.1-1,0.1c0,0,0,0.1,0,0.1c0,0-0.1,0-0.1,0C3.7,6,3.6,6,3.5,5.9l0,0c0,0.7,0.4,1.3,1.1,1.8C4.4,7.3,4.6,7,5,6.9
							c0,0,0,0,0,0C5.3,7,5.2,7.2,5.4,7.4c0.1,0.2,0.3,0.3,0.4,0.3c0.1,0,0.2,0,0.2-0.1C6.4,7.4,6.2,7,5.9,6.8
							C5.7,6.7,5.4,6.7,5.2,6.5c0.1-0.1,0.2-0.3,0.3-0.3C5.7,6,5.9,5.7,5.9,5.4"/>
						<path class="st15" d="M9.6,12.5c-0.4,0.1-0.7,0.2-1.1,0.3c0.3,0,0.5,0.1,0.8,0.1C9.4,12.7,9.5,12.6,9.6,12.5 M3.7,7.8
							c0,0-0.1,0-0.1,0c0,0.4,0.1,0.7,0.2,1.1l0.1,0c0.4,0,0.7,0,1.1,0.1C4.8,8.2,4.4,7.8,3.7,7.8 M9,7.7C8.8,7.9,8.5,8,8.2,8.1
							c0.1,0.3,0.1,0.6,0.1,0.9c0,0.9-0.3,1.8-0.8,2.5c0.8-0.6,1.2-1.1,1.5-2.1c0.4-0.1,0.7-0.1,1.1-0.1C9.9,8.7,9.5,8.1,9,7.7
							 M2.4,5.9C2.4,5.9,2.4,5.9,2.4,5.9C2.4,5.9,2.4,5.9,2.4,5.9L2.4,5.9 M6.3,5.3C6.2,5.3,6.1,5.4,6,5.4c0.2,0.1,0.4,0.2,0.6,0.3
							C6.5,5.5,6.5,5.4,6.3,5.3"/>
						<path class="st6" d="M3.4,5.9c-0.2,0-0.4,0-0.6,0c-0.2,0-0.3,0-0.4,0c0,0-0.1,0-0.1,0.1l0,0C2.4,6.3,2.7,6.4,3,6.4
							c0,0,0.1,0,0.1,0l0.1,0c0.2,0,0.4,0.2,0.4,0.4c0.1,0.2,0,0.4,0,0.7c0,0.1,0,0.2,0,0.3c0,0,0.1,0,0.1,0C4.4,7.8,4.8,8.2,5,9
							c1.1,0.2,1.8,0.8,1.8,1.6c0,0.7-0.5,1.1-1.1,1.2c0,0.1-0.1,0.1-0.1,0.2c0.4,0.2,0.9,0.4,1.3,0.5c0.5,0.1,1,0.2,1.5,0.3
							c0.4-0.1,0.7-0.2,1.1-0.3c0.4-0.5,0.7-1.2,0.7-1.9c0-0.4,0-0.8-0.2-1.2C9.8,9.4,9.4,9.5,9,9.5c-0.3,1-0.8,1.4-1.5,2.1
							C8,10.9,8.3,10,8.3,9.1c0-0.3,0-0.6-0.1-1C7.9,8.2,7.7,8.3,7.4,8.3C7,8.5,6.6,8.6,6.3,8.6c-0.3,0-0.7-0.1-1-0.2
							C4.9,8.3,4.6,8,4.5,7.7l0,0C3.9,7.2,3.5,6.5,3.4,5.9 M6,5.4L6,5.4C5.9,5.7,5.7,6,5.5,6.2C5.7,6.1,6,6.2,6.3,6
							C6.3,6,6.4,6,6.5,5.9c0.1-0.1,0.1-0.1,0.1-0.2C6.4,5.6,6.2,5.5,6,5.4"/>
					</g>
				</g>
				<g>
					<defs>
						<polyline id="SVGID_00000088846183321907234880000000359982273194007696_" points="-1.3,17 36.4,17.3 36.2,55 -1.6,54.8 
							-1.3,17 						"/>
					</defs>
					<clipPath id="SVGID_00000173871251209208328440000018146446530557070015_">
						<use xlink:href="#SVGID_00000088846183321907234880000000359982273194007696_"  style="overflow:visible;"/>
					</clipPath>
					<g style="clip-path:url(#SVGID_00000173871251209208328440000018146446530557070015_);">
						<path class="st4" d="M9.1,28.1L9.1,28.1l-0.2,0L9,28.3l0.1-0.1C9.2,28.2,9.2,28.2,9.1,28.1C9.2,28.1,9.1,28.1,9.1,28.1
							 M1,25.9L1,25.9c-0.2,0-0.4,0.1-0.5,0.3c0.2,0.2,0.4,0.3,0.6,0.4c0.1-0.2,0.2-0.5,0.2-0.7C1.2,26,1.1,25.9,1,25.9 M1.7,24.5
							c-0.2,0-0.3,0.1-0.4,0.2c-0.2,0.5-0.1,0.6,0.2,0.8c0.1-0.3,0.3-0.6,0.5-0.9c-0.1,0-0.1,0-0.2-0.1C1.8,24.5,1.8,24.5,1.7,24.5
							 M5.9,24.3c-0.1,0-0.1,0-0.2,0.1c0.1,0,0.1,0,0.2,0L5.9,24.3 M11.7,23.9C11.3,24,11,24,10.7,24c-0.1,0-0.3,0-0.4,0
							c0.1,0.3,0.1,0.5,0.1,0.8c0,0.6-0.2,1.2-0.5,1.7c0.3-0.1,0.7-0.1,1-0.2c0.1-0.2,0.3-0.3,0.5-0.5
							C11.3,25.2,11.3,24.5,11.7,23.9 M17.1,22.5c0,0.4-0.1,0.8-0.2,1.1l0,0c0.3,0,0.6-0.3,0.6-0.6C17.5,22.9,17.4,22.7,17.1,22.5
							L17.1,22.5 M4.3,22c-0.4,0.1-0.8,0.3-1.2,0.6l-0.1,0.1c0,0.1,0.1,0.2,0.1,0.3l0,0l0,0C3.5,22.6,3.9,22.3,4.3,22 M17.1,21.2
							L17.1,21.2c0,0.3,0,0.6,0,0.8l0,0c0.1,0,0.2,0,0.4,0C17.4,21.8,17.3,21.5,17.1,21.2 M17.1,19.7c-0.1,0-0.3,0-0.4,0.1
							c0.1,0.1,0.1,0.3,0.1,0.4c0.2,0.1,0.3,0.2,0.5,0.3c0.2-0.3,0.2-0.8-0.1-0.9C17.2,19.7,17.1,19.7,17.1,19.7 M8.2,19.1l0.1,0.2
							c0,0,0-0.1,0-0.1L8.2,19.1 M5.1,19c-0.1,0-0.2,0-0.3,0.1c0.2,0.8,0.4,1.6,0.6,2.3c0.1,0,0.2-0.1,0.3-0.1
							C5.7,20.5,5.4,19.8,5.1,19"/>
						<path class="st7" d="M14.7,33c-0.1,0.2-0.2,0.3-0.4,0.5C14.5,33.4,14.7,33.2,14.7,33L14.7,33 M11.4,26.2
							c-0.2,0.1-0.3,0.1-0.5,0.2c-0.5,0.6-0.9,1.4-1.2,2.2c-0.1,0.2-0.1,0.4-0.2,0.6c0.2,0.4,0.5,0.8,0.8,1.2c0.1,0,0.1-0.1,0.2-0.1
							c-0.7-0.9-0.6-2.2,0.3-3.1c0,0,0,0,0,0c0,0,0,0,0,0c0,0,0,0,0,0.1c-0.3,0.8,0.2,1.6,0.9,2c0.1-0.2,0.2-0.4,0.3-0.6
							c-0.2-0.5-0.3-0.9-0.5-1.4C11.5,26.7,11.5,26.4,11.4,26.2 M16,20.8c-0.1,0.1-0.1,0.1-0.2,0.2c0.2,0.5,0.4,1,0.5,1.6
							c0-0.1,0-0.3,0-0.4c0,0-0.1-0.1-0.1-0.1l0.1,0c0-0.2-0.1-0.4-0.1-0.6l0,0l-0.1,0c0,0,0,0,0.1-0.1C16.2,21.2,16.1,21,16,20.8
							 M15.5,19.9C15.5,19.9,15.5,19.9,15.5,19.9C15.4,19.9,15.4,19.9,15.5,19.9c-0.1,0.1,0,0.2,0,0.2c0.1,0.1,0.1,0.3,0.2,0.4
							c0-0.1,0.1-0.2,0.1-0.4C15.6,20.1,15.6,20,15.5,19.9C15.5,19.9,15.5,19.9,15.5,19.9 M8.4,19.2c-0.1,0.3-0.1,0.5-0.1,0.8
							c0,0.6,0.2,1.2,0.6,1.7c0.2,0.1,0.3,0.2,0.5,0.4c0.4,0.2,0.8,0.3,1.2,0.3c0.4,0,0.8-0.1,1.1-0.2c-0.2-0.4-0.4-0.8-0.7-1.1l0,0
							c0,0,0,0,0,0c-0.1-0.1-0.2-0.2-0.3-0.4c-0.2,0-0.3,0-0.5-0.1C9.4,20.4,8.9,19.9,8.4,19.2"/>
						<path class="st5" d="M12.8,32.5c-0.1,0.1-0.2,0.3-0.3,0.4l0.1,0.1C12.6,32.9,12.7,32.7,12.8,32.5 M10.9,27
							C10.8,27,10.8,27.1,10.9,27c-0.9,0.9-1,2.3-0.3,3.1c-0.1,0-0.1,0.1-0.2,0.1l0.1,0.2c0.5-0.4,1-0.9,1.3-1.4
							C11.1,28.7,10.6,27.9,10.9,27C10.9,27.1,10.9,27.1,10.9,27C10.9,27.1,10.9,27,10.9,27 M11.4,25.9c-0.2,0.2-0.3,0.3-0.5,0.5
							c0.2-0.1,0.3-0.1,0.5-0.2C11.4,26.1,11.4,26,11.4,25.9 M6.5,24.2c-0.2,0-0.4,0-0.5,0.1l0,0.1c0.7,0.2,1.1,0.8,1.5,1.4l0.2,0.3
							c0.1-0.2,0.2-0.4,0.2-0.6C7.9,24.8,7.4,24.2,6.5,24.2 M9.3,22.1c0.5,0.5,0.9,1.2,1,1.9c0.1,0,0.3,0,0.4,0c0.3,0,0.6,0,0.9-0.1
							c0.1-0.1,0.1-0.2,0.2-0.3c0.1-0.1,0.2-0.2,0.3-0.3c-0.1-0.4-0.3-0.8-0.5-1.2c-0.3,0.2-0.7,0.3-1.1,0.2
							C10.1,22.4,9.7,22.3,9.3,22.1 M6.8,18.8c-0.6,0-1.1,0.1-1.7,0.2c0.3,0.7,0.5,1.5,0.7,2.3c0.4-0.1,0.8-0.2,1.2-0.2
							c0.7,0,1.3,0.2,1.9,0.6c-0.4-0.5-0.6-1.1-0.6-1.7c0-0.3,0-0.6,0.1-0.8L8.2,19C7.8,18.9,7.3,18.8,6.8,18.8"/>
						<path class="st13" d="M16.6,19.9C16.5,20,16.5,20,16.6,19.9c0.1,0.4,0.3,0.6,0.4,0.9l0.1,0c0-0.2-0.1-0.4-0.2-0.6
							C16.8,20.1,16.7,20,16.6,19.9L16.6,19.9"/>
						<path class="st14" d="M17.5,21.1c-0.1,0-0.2,0-0.3,0l0,0c0.1,0.3,0.3,0.6,0.4,0.9c0,0,0.1,0,0.1,0s0.1,0,0.2,0
							c0.3,0,0.5-0.5,0.3-0.8C17.9,21.2,17.7,21.1,17.5,21.1 M16.9,20.2c0.1,0.2,0.1,0.4,0.2,0.6c0.1-0.1,0.2-0.1,0.2-0.2
							c0,0,0.1-0.1,0.1-0.1C17.2,20.4,17,20.3,16.9,20.2"/>
						<path class="st13" d="M15.5,34c0.1,0.1,0.2,0.3,0.2,0.4c0-0.1,0-0.2-0.1-0.2L15.5,34 M1.1,26.7C1.1,26.8,1,26.9,1,27l0,0
							c0.2,0,0.3-0.1,0.4-0.2C1.3,26.8,1.2,26.7,1.1,26.7 M9.9,26.6c-0.3,0.1-0.7,0.1-1,0.1c-0.1,0-0.3,0-0.4,0
							c0,0.2-0.1,0.3-0.2,0.5l0.3,0.5C9.2,27.4,9.6,27,9.9,26.6 M4.4,26.1c-0.1,0-0.2,0-0.3,0c0,0-0.1,0-0.1,0c0,0-0.1,0-0.1,0
							c-0.4,0.5-1,0.8-1.8,0.8l-0.1,0c-0.4,0.3-0.7,0.7-0.1,1.1c0,0,0.1,0,0.2,0c0.4,0,0.5-0.9,0.6-1.2C3.1,27,2.9,27.7,3,28.1
							c0.1,0.2,0.3,0.4,0.6,0.4c0.1,0,0.2,0,0.3-0.1c0.3-0.2,0.4-0.5,0.2-0.8c0,0,0,0,0-0.1c-0.1-0.2-0.3-0.2-0.5-0.4
							c-0.1-0.1-0.3-0.2-0.2-0.4l0,0c0.2,0,0.4,0.1,0.5,0.2c0.1,0.1,0.3,0.2,0.4,0.2C4.4,26.8,4.4,26.4,4.4,26.1
							C4.5,26.1,4.4,26.1,4.4,26.1 M2,24.6C2,24.6,2,24.6,2,24.6L2,24.6L2,24.6 M3.2,22.9c-0.3,0.3-0.5,0.6-0.7,0.9
							c0,0.3,0,0.6,0,0.8C3.1,24.5,3.5,23.8,3.2,22.9 M4.5,22.8c0.1,0.6,0.2,1.1,0.1,1.7c0.2-0.1,0.3-0.2,0.5-0.2
							C5,23.8,4.8,23.2,4.5,22.8 M16.3,22.5c0,0.2,0,0.4-0.1,0.6c0.1,0.1,0.2,0.2,0.3,0.4C16.5,23.2,16.4,22.9,16.3,22.5 M15,19.3
							c-0.1,0-0.3,0.1-0.3,0.2c-0.3,0.6,0.4,1.2,0.2,1.8c-0.2-0.1-0.3-0.2-0.5-0.3l0,0.1c0.1,0.3,0.1,0.6,0.1,0.8c0,0.2,0,0.4,0,0.5
							l0.4-0.1c0,0,0,0.1,0.1,0.1c0.4-0.8,0.6-1.6,0.5-2.5C15.3,19.8,15.1,19.6,15,19.3L15,19.3 M8.4,19C8.4,19,8.4,19.1,8.4,19
							c0.8,0.4,1.6,1,2.2,1.7c0,0,0.1,0,0.1,0c0.1,0,0.2,0,0.3,0c0.1-0.4,0.1-0.7,0.2-1.1c-0.7,0-1.4-0.2-2-0.3
							C8.9,19.2,8.7,19.1,8.4,19"/>
						<path class="st14" d="M7.4,22.4c0.4,0.9,0.7,1.4,1.6,2c-0.1,0.7-0.2,1.5-0.5,2.2c0.1,0,0.3,0,0.4,0c0.3,0,0.7,0,1-0.1
							c0.3-0.5,0.5-1.1,0.5-1.7c0-0.3,0-0.5-0.1-0.8c-0.3,0-0.5-0.1-0.8-0.1C8.7,23.6,7.9,23.1,7.4,22.4 M5.8,21.3
							c-0.1,0-0.2,0.1-0.3,0.1c0.1,0.3,0.2,0.5,0.3,0.8C5.4,22.1,5.1,22,4.7,22c-0.1,0-0.2,0-0.4,0c-0.4,0.3-0.8,0.6-1.1,0.9
							c0.2,0.8-0.1,1.6-0.7,1.7c0,0.1,0,0.1,0,0.2c0,0.2,0.1,0.2,0.1,0.4c0,0-0.1,0-0.1,0c-0.2,0-0.2-0.2-0.3-0.4
							c0-0.1-0.1-0.1-0.2-0.2l-0.1,0c-0.2,0.3-0.3,0.6-0.5,0.9C1.7,25.6,2,25.8,2.1,26c-0.1,0.1-0.2,0.1-0.3,0.1
							c-0.1,0-0.3,0-0.4-0.1l0,0c-0.1,0.2-0.2,0.4-0.2,0.7c0.1,0.1,0.2,0.1,0.4,0.1c0,0,0.1,0,0.1-0.1c0.1-0.1,0.3-0.1,0.5-0.2
							c0.1,0,0.1,0,0.2,0.1c-0.1,0.1-0.1,0.1-0.2,0.2l0.1,0c0.8,0,1.4-0.3,1.8-0.8c-0.2,0-0.4-0.1-0.4-0.3c0-0.2,0.1-0.4,0.2-0.5
							C4,25,4.3,24.7,4.6,24.5c0.1-0.6,0.1-1.2-0.1-1.7c0.3,0.5,0.5,1,0.6,1.5c0.1,0,0.1,0,0.2,0l0,0c0.1,0,0.3,0,0.4,0
							c0.1,0,0.1,0,0.2-0.1C6,23.3,6,22.3,5.8,21.3 M14.4,21.1c0,0.1,0,0.1-0.1,0.2c-0.1,0.5-0.3,0.9-0.6,1.3
							c0.2-0.1,0.5-0.1,0.8-0.1c0-0.2,0-0.4,0-0.5C14.5,21.7,14.4,21.4,14.4,21.1 M8.1,18.9L8.2,19l0.2,0.1c0,0,0-0.1,0-0.1
							C8.3,19,8.2,18.9,8.1,18.9 M4.7,18.2c0,0.3,0.1,0.6,0.2,0.9c0.1,0,0.2,0,0.3-0.1C5,18.7,4.9,18.4,4.7,18.2"/>
						<path class="st15" d="M14.5,32.7c-0.5,0.2-1,0.6-1.2,1.1c0.4,0.3,0.8,0.6,1.2,0.9c0.2,0.2,0.5,0.2,0.7,0.3c0.1,0,0.1,0,0.2,0
							c0.2,0,0.4-0.3,0.4-0.5c-0.1-0.1-0.2-0.3-0.2-0.4c-0.2-0.3-0.5-0.6-0.7-0.9c-0.1,0.1-0.3,0.2-0.4,0.4c0.1-0.1,0.3-0.3,0.4-0.5
							C14.7,32.9,14.6,32.8,14.5,32.7 M12.7,29.7c-0.7,0.3-1.3,0.8-1.8,1.3c0.3,0.5,0.7,0.9,1.1,1.4c0.3-0.6,0.8-1.1,1.3-1.5
							C13.1,30.5,12.9,30.1,12.7,29.7 M12.1,28.4c-0.1,0.2-0.2,0.4-0.3,0.6c0.2,0.1,0.5,0.2,0.7,0.2C12.4,29,12.2,28.7,12.1,28.4
							 M8,26.6c0.1,0.2,0.2,0.3,0.3,0.5c0.1-0.2,0.1-0.3,0.2-0.5C8.3,26.6,8.1,26.6,8,26.6 M8.8,21.7C9,21.9,9.1,22,9.3,22.1
							C9.2,22,9,21.8,8.8,21.7 M14.3,21L14.3,21L14.3,21L14.3,21 M11,20.7c-0.1,0-0.2,0-0.3,0c0,0-0.1,0-0.1,0
							c0.1,0.1,0.2,0.2,0.3,0.4C11,20.9,11,20.8,11,20.7 M15.4,20.1c0.1,0.9-0.1,1.7-0.5,2.5c0,0.2,0,0.3-0.1,0.4
							c-0.2,0.3-0.2,0.7,0.1,0.9C15,24,15.1,24,15.2,24c0.2,0,0.4-0.2,0.5-0.4c0.1-0.2-0.1-0.5-0.1-0.7s-0.2-0.4,0-0.6
							c0.3,0.1,0.5,0.5,0.7,0.8c0-0.2,0.1-0.4,0.1-0.6C16.2,22,16,21.5,15.8,21c-0.1,0.1-0.2,0.1-0.2,0.1c0-0.2,0-0.4,0.1-0.6
							C15.6,20.4,15.5,20.2,15.4,20.1 M12.7,19.9L12.7,19.9c-0.8,0-1.1,0.9-1.8,1.1c0.3,0.3,0.5,0.7,0.7,1.1
							C12.5,21.7,12.9,20.8,12.7,19.9L12.7,19.9"/>
						<path class="st6" d="M13.3,30.9c-0.6,0.4-1,0.9-1.3,1.5c0.2,0.2,0.3,0.3,0.5,0.5c0.1-0.1,0.2-0.3,0.3-0.4
							c-0.1,0.2-0.2,0.3-0.2,0.5c0.2,0.2,0.5,0.5,0.8,0.7c0.2-0.5,0.6-0.9,1.2-1.1C14.1,32.1,13.7,31.5,13.3,30.9 M11.8,29.1
							c-0.3,0.6-0.8,1-1.3,1.4c0.1,0.2,0.3,0.4,0.4,0.6c0.5-0.5,1.1-1,1.8-1.3c-0.1-0.1-0.1-0.3-0.2-0.4
							C12.3,29.3,12,29.2,11.8,29.1 M7,21.2c-0.4,0-0.8,0.1-1.2,0.2c0.2,1,0.2,2,0.1,3c0.2-0.1,0.4-0.1,0.5-0.1
							c0.9,0,1.4,0.6,1.4,1.3c0,0.2-0.1,0.4-0.2,0.6c0.1,0.1,0.2,0.3,0.3,0.4c0.2,0,0.3,0,0.5,0.1c0.2-0.7,0.4-1.4,0.5-2.2
							c-0.9-0.6-1.2-1.1-1.6-2c0.6,0.7,1.3,1.2,2.2,1.4c0.3,0.1,0.5,0.1,0.8,0.2c-0.1-0.7-0.5-1.4-1-1.9C9.1,22,9,21.9,8.9,21.7
							C8.3,21.4,7.7,21.2,7,21.2 M12.8,19.9c0.1,0.9-0.3,1.8-1.2,2.2c0.2,0.4,0.4,0.8,0.5,1.2c0.4-0.4,1-0.6,1.5-0.7
							c0.3-0.4,0.5-0.8,0.6-1.3c0-0.1,0-0.2,0.1-0.2l0-0.1C13.8,20.6,13.4,20,12.8,19.9 M5,17.1l-0.4,0c0,0.4,0.1,0.7,0.1,1.1
							C4.9,18.4,5,18.7,5.1,19c0.5-0.1,1.1-0.2,1.7-0.2c0.5,0,1,0.1,1.5,0.2l-0.1-0.2C7,18.5,5.9,17.8,5,17.1"/>
						<path class="st7" d="M0.5,26.6c0.1,0.1,0.2,0.3,0.3,0.3C0.7,26.8,0.6,26.7,0.5,26.6"/>
						<path class="st10" d="M11.2,17.1l-0.5,0c-1.1,0.3-2,1-2.3,1.9c0.2,0.1,0.5,0.2,0.7,0.2c0.7,0.2,1.3,0.3,2,0.3
							c0.1-0.5,0.1-0.9,0.1-1.4c-0.1,0-0.2-0.1-0.3-0.1c-0.2,0-0.4-0.1-0.6-0.1c-0.2,0-0.4,0-0.6,0.1l0,0c0,0,0,0-0.1,0
							c0,0,0-0.1,0-0.1c0.4-0.4,1-0.6,1.5-0.7C11.3,17.2,11.3,17.2,11.2,17.1"/>
						<path class="st11" d="M10.8,17.1l-4,0c0.5,0.6,0.9,1.3,1.4,1.8c0.1,0,0.2,0.1,0.3,0.1C8.8,18.1,9.6,17.4,10.8,17.1"/>
						<path class="st17" d="M11.3,17.3c-0.6,0.1-1.1,0.3-1.5,0.7c0,0,0,0,0,0.1c0,0,0,0,0.1,0l0,0C10,18,10.2,18,10.4,18
							c0.2,0,0.4,0,0.6,0.1c0.1,0,0.2,0.1,0.3,0.1C11.3,17.9,11.3,17.6,11.3,17.3"/>
						<path class="st12" d="M6.8,17.1L5,17c0.9,0.8,2,1.4,3.1,1.8C7.7,18.3,7.3,17.7,6.8,17.1"/>
					</g>
				</g>
			</g>
		</g>
		
			<linearGradient id="SVGID_00000141431903614711426730000012975446594163123367_" gradientUnits="userSpaceOnUse" x1="2230.978" y1="-3148.2339" x2="2209.3215" y2="-3126.5771" gradientTransform="matrix(1 6.613863e-03 6.613863e-03 -1 -2188.2827 -3134.2742)">
			<stop  offset="0" style="stop-color:#FE157A"/>
			<stop  offset="0.11" style="stop-color:#FA187C"/>
			<stop  offset="0.22" style="stop-color:#ED2083"/>
			<stop  offset="0.34" style="stop-color:#D82E8E"/>
			<stop  offset="0.45" style="stop-color:#BB429D"/>
			<stop  offset="0.57" style="stop-color:#955BB1"/>
			<stop  offset="0.69" style="stop-color:#677AC9"/>
			<stop  offset="0.8" style="stop-color:#329EE5"/>
			<stop  offset="0.9" style="stop-color:#00BFFF"/>
		</linearGradient>
		<path style="fill:url(#SVGID_00000141431903614711426730000012975446594163123367_);" d="M15.7,34.2c-1.9-2.1-3.3-4.5-4.1-7.2
			c-0.3-1.2-0.5-2.4,0.2-3.4c0.7-0.9,1.9-1,3-1.2c0.1,0.2,0.1,0.4-0.1,0.6c-0.2,0.3-0.2,0.7,0.1,0.9c0.2,0.2,0.6,0.1,0.7-0.1
			c0,0,0.1-0.1,0.1-0.2c0.1-0.2-0.1-0.5-0.1-0.7c0-0.2-0.2-0.4,0-0.6c0.6,0.2,0.6,1.1,1.2,1.3c0.3,0.1,0.6-0.1,0.7-0.4
			c0.1-0.3,0-0.6-0.3-0.7c-0.4-0.2-0.7-0.2-1-0.6c0.7-0.1,1,0.1,1.5,0.1c0.3,0,0.5-0.5,0.3-0.8c-0.2-0.2-0.6-0.2-0.9-0.2
			s-0.7,0.3-1,0.2c0.3-0.2,0.8-0.5,1.1-0.8c0.3-0.2,0.4-0.9,0-1c-0.9-0.2-0.9,1.2-1.7,1.4c0-0.6,0.3-1,0-1.5
			c-0.2-0.3-0.7-0.5-0.9-0.1c-0.3,0.6,0.4,1.2,0.2,1.8c-0.8-0.3-1.3-1.4-2.2-1.4c-0.7,0-1,0.9-1.7,1.1c0.5-2.1,0.4-4.1,0-6.2
			c-0.1-0.3,0.3-0.4,0.5-0.4c0.3,0,0.5,0.2,0.8,0.2c0.6,0,1-0.4,1.3-0.9s0.5-1,1-1.3c0.4,0.2,0.4,0.7,0.6,1.1
			c0.2,0.4,0.6,0.5,0.8,0.1c0.3-0.6-0.7-0.8-0.6-1.4c0.4-0.1,0.7,0.2,1,0.3c0.3,0.1,0.7,0.3,0.9-0.1c0.2-0.4-0.3-0.8-0.7-0.8
			c-0.4,0-0.9,0.2-1.3-0.1c0.5-0.5,1.5-0.1,1.7-0.8c0.1-0.3-0.2-0.6-0.6-0.6c-0.5,0-0.9,0.7-1.3,0.9c0.1-0.5,0.7-1.1,0.5-1.5
			c-0.1-0.4-0.5-0.5-0.7-0.4c-0.3,0.2-0.3,0.6-0.2,1c0.1,0.3,0.1,0.8-0.4,0.9c-0.4-0.3-0.2-0.8-0.5-1c-0.3-0.2-0.8,0.1-0.7,0.5
			c0.1,0.4,0.6,0.6,0.8,0.9c-0.4,0.4-0.8,0.8-1.4,0.9c-0.6,0.1-1.2-0.2-1.3-0.8c0-1.1,0.1-2.2,1.1-2.8c0.4-0.2,0.9-0.1,1.2-0.3
			c0.5-0.3,0.8-0.9,0.8-1.5s-0.1-1.2,0-1.8c0.1-1.1,0.7-2.3,0.2-3.4c-0.4-0.8-1.3-1-2-0.8c-0.6,0.2-1,0.8-1.5,1.2
			C10.5,2.7,9.8,3,9.2,3.4c-0.6,0.5-1,1.1-0.8,1.9c0.3,1,0.2,1.9-0.5,2.6C7.1,8.7,6.2,8.8,5.2,8.4C4.9,8.3,4.6,8.1,4.5,7.7
			C4.4,7.4,4.6,7,4.9,6.9c0,0,0,0,0.1,0C5.3,7,5.2,7.2,5.4,7.4c0.2,0.2,0.4,0.4,0.7,0.2C6.4,7.4,6.2,7,5.9,6.8
			C5.7,6.7,5.4,6.7,5.2,6.5C5.4,6,6.1,6.3,6.4,5.9c0.3-0.3-0.1-0.8-0.6-0.8C5.5,5.2,5.3,5.9,4.8,5.9C4.9,5.5,5.1,5.3,5.3,5
			c0.1-0.1,0.1-0.2,0.1-0.4c-0.1-0.5-0.7-0.5-1-0.2C4.3,4.8,4.5,5.3,4.2,5.7C4,5.5,4,5.2,3.9,4.9C3.8,4.6,3.6,4.2,3.3,4.2
			S2.7,4.3,2.9,4.7C3,5.1,3.9,5.5,3.9,6C3.5,6.1,3.3,5.6,3,5.4C2.7,5.4,2.4,5.5,2.4,5.8c0,0.1,0,0.1,0,0.2c0.1,0.3,0.4,0.5,0.8,0.5
			c0.2,0,0.5,0.1,0.5,0.4c0.1,0.2,0,0.4,0,0.7c0,1.3,0.6,2.3,1.7,2.8c0.4,0.2,0.5,0.6,0.5,1c0,0.4-0.3,0.7-0.4,1.1
			C4,15.6,4.6,19,5.8,22.2c-0.9-0.4-1.8-0.3-2.6,0.3c-0.7,0.6-0.8,1.5-0.6,2.3c0,0.2,0.1,0.2,0.1,0.4c-0.3,0.1-0.2-0.2-0.4-0.4
			c-0.2-0.3-0.7-0.5-0.9-0.1c-0.4,0.8,0.5,0.7,0.8,1.2c-0.4,0.2-0.8-0.1-1.2-0.1c-0.3,0-0.5,0.3-0.5,0.6c0,0,0,0,0,0
			C0.5,26.8,0.7,27,1,27c0.2,0,0.4-0.2,0.6-0.2s0.5-0.3,0.7-0.1C1.9,27,1.2,27.5,1.9,28c0.5,0.3,0.6-0.8,0.8-1.1
			C3.1,27,2.9,27.7,3,28.1c0.1,0.3,0.4,0.5,0.7,0.4c0,0,0.1,0,0.1,0c0.3-0.2,0.4-0.5,0.2-0.8c0,0,0,0,0-0.1
			c-0.1-0.2-0.3-0.2-0.5-0.4c-0.1-0.1-0.3-0.2-0.2-0.4c0.4,0,0.6,0.4,1,0.4c0.3,0,0.5-0.2,0.5-0.5c0-0.1-0.1-0.2-0.1-0.3
			c-0.2-0.2-0.4-0.2-0.7-0.2c-0.3,0-0.5,0-0.6-0.3c0-0.2,0.1-0.4,0.2-0.5c0.4-0.5,0.9-1,1.6-1c1,0,1.6,0.7,2.1,1.5
			c2.1,3.1,3.7,6.7,7,8.9c0.3,0.2,0.6,0.3,0.9,0.2C15.7,34.8,15.9,34.4,15.7,34.2z"/>
	</g>
</g>
</svg>
