<?xml version="1.0" encoding="utf-8"?>
<!-- Generator: Adobe Illustrator 25.4.0, SVG Export Plug-In . SVG Version: 6.00 Build 0)  -->
<svg version="1.1" id="Layer_1" xmlns="http://www.w3.org/2000/svg" xmlns:xlink="http://www.w3.org/1999/xlink" x="0px" y="0px"
	 viewBox="0 0 106 36" style="enable-background:new 0 0 106 36;" xml:space="preserve">
<style type="text/css">
	.st0{fill:#FFFFFF;}
</style>
<g id="Layer_1_00000110470555335623192980000005777225539623907260_">
	<g id="Artwork_5">
		<g>
			<g>
				<g>
					<g>
						<g>
							<g>
								<path class="st0" d="M38.2,15v0.1c0,2-0.5,4.8-2.5,6.8c-1.9,1.9-4,2.2-6,2.2c-2.1,0-4.1-0.4-5.9-2.2c-1.1-1-2.2-2.8-2.2-5.4
									c0-2.2,0.9-4.3,2.3-5.8c1-1,3.1-2.5,6.7-2.5c3.2,0,5.6,1.2,7.2,3.8l-5.1,2c-0.2-0.5-0.8-1.3-2-1.3c-0.9,0-1.7,0.3-2.3,0.9
									c-0.7,0.7-1.2,1.8-1.2,3.1c0,1,0.3,1.7,0.9,2.3c0.6,0.6,1.3,0.8,2.1,0.8c0.6,0,1.9-0.1,2.4-1.7h-2.9l0.5-3.3L38.2,15z"/>
								<polygon class="st0" points="51.4,8.6 50.9,12.6 46.4,12.6 46.2,14.2 50.3,14.2 49.9,18 45.8,18 45.6,19.7 50.2,19.7 
									49.7,23.7 39.6,23.7 41.5,8.6 								"/>
								<path class="st0" d="M64.5,9L64,14.3c-1-0.8-1.9-1.2-3-1.2c-1.8,0-3.3,1.5-3.3,3.4c0,1.5,1.3,2.7,2.9,2.7c1.1,0,2-0.4,3-1.3
									l-0.7,5.5c-1.5,0.5-2.4,0.7-3.4,0.7c-4.2,0-7.2-3.2-7.2-7.5c0-4.8,3.6-8.4,8.3-8.4C61.9,8.3,63.2,8.5,64.5,9"/>
								<path class="st0" d="M72.6,8.6l-0.5,3.9c-0.1,0.9-0.3,1.8-0.5,2.6l0.2,0c0.3-0.8,0.6-1.4,1-1.9l0.5-0.8l2.4-3.8H82l-5.9,7.7
									l3.8,7.4h-5.8l-1.9-4.3c-0.4-0.9-0.6-1.4-0.8-2.2l-0.2,0v0.5c0,0.6,0,1.2-0.1,1.7l-0.5,4.3h-5.5l1.9-15.1H72.6z"/>
								<path class="st0" d="M98.5,16.1c0,4.6-3.6,8.1-8.3,8.1c-4.8,0-8.4-3.4-8.4-7.7c0-4.6,3.7-8.1,8.3-8.1c2.2,0,4.3,0.7,5.9,2.1
									C97.6,11.7,98.5,13.7,98.5,16.1 M93,16.2c0-1.6-1.2-2.9-2.7-2.9c-1.7,0-3,1.4-3,3.2c0,1.7,1.1,2.9,2.7,2.9
									C91.7,19.4,93,18,93,16.2"/>
								<path class="st0" d="M105.6,21.5c0,1.4-1.3,2.6-3.1,2.6c-1.7,0-2.9-1-2.9-2.4c0-1.4,1.4-2.7,3-2.7S105.6,20.1,105.6,21.5"/>
							</g>
						</g>
					</g>
				</g>
			</g>
		</g>
	</g>
</g>
<g>
	<path class="st0" d="M16,34.5c-1.9-2.1-3.4-4.5-4.2-7.3c-0.4-1.2-0.6-2.4,0.2-3.5c0.7-1,1.9-1,3-1.2c0.1,0.2,0.1,0.4-0.1,0.6
		c-0.2,0.3-0.2,0.7,0.1,0.9c0.2,0.2,0.6,0.1,0.7-0.1c0,0,0.1-0.1,0.1-0.2c0.1-0.2-0.1-0.5-0.1-0.7s-0.2-0.4,0-0.6
		c0.6,0.2,0.7,1.1,1.3,1.3c0.3,0.1,0.6-0.1,0.7-0.4c0.1-0.3,0-0.6-0.3-0.7c-0.4-0.2-0.7-0.2-1-0.6c0.7-0.1,1,0.1,1.6,0.1
		c0.3,0,0.5-0.5,0.3-0.8c-0.2-0.2-0.6-0.2-0.9-0.2c-0.3,0.1-0.7,0.3-1.1,0.2c0.3-0.3,0.8-0.5,1.1-0.8s0.4-0.9,0-1
		c-0.9-0.2-0.9,1.3-1.7,1.5c0-0.6,0.3-1,0-1.5c-0.2-0.3-0.7-0.5-0.9-0.1c-0.3,0.6,0.5,1.2,0.2,1.8c-0.8-0.3-1.3-1.4-2.2-1.4
		c-0.7,0-1.1,1-1.8,1.1c0.5-2.2,0.4-4.2,0-6.3c-0.1-0.3,0.3-0.4,0.5-0.4s0.5,0.2,0.8,0.2c0.6,0,1-0.4,1.3-0.9c0.3-0.5,0.5-1,1-1.3
		c0.5,0.2,0.4,0.7,0.6,1.1c0.2,0.4,0.7,0.5,0.9,0.1c0.3-0.6-0.7-0.8-0.6-1.5c0.4-0.1,0.7,0.1,1,0.3c0.3,0.1,0.8,0.3,0.9-0.1
		c0.2-0.4-0.3-0.8-0.7-0.8s-0.9,0.2-1.3-0.1c0.5-0.5,1.5-0.1,1.8-0.9c0.1-0.3-0.2-0.6-0.6-0.6c-0.5,0-0.9,0.7-1.3,1
		c0.1-0.5,0.7-1.1,0.5-1.5C15.6,9.1,15.3,9,15,9.1c-0.3,0.2-0.3,0.6-0.2,1s0.1,0.9-0.4,0.9c-0.4-0.3-0.2-0.8-0.6-1
		c-0.3-0.2-0.8,0.1-0.7,0.5c0.1,0.4,0.6,0.6,0.8,0.9c-0.4,0.4-0.9,0.9-1.4,1s-1.3-0.2-1.3-0.8c0-1.1,0.1-2.2,1.1-2.8
		c0.4-0.2,0.9-0.1,1.3-0.4c0.6-0.3,0.8-0.9,0.8-1.5s-0.1-1.2,0-1.8c0.1-1.2,0.7-2.3,0.2-3.4c-0.4-0.8-1.3-1-2.1-0.8
		c-0.6,0.2-1,0.9-1.6,1.3c-0.6,0.5-1.3,0.7-1.9,1.2s-1,1.2-0.8,1.9c0.3,1,0.2,1.9-0.5,2.7S6.1,8.8,5.2,8.4C4.8,8.3,4.5,8,4.4,7.7
		C4.3,7.3,4.5,7,4.9,6.9c0,0,0,0,0,0C5.2,7,5.2,7.1,5.3,7.4C5.5,7.6,5.7,7.8,6,7.6C6.4,7.3,6.2,7,5.9,6.8C5.6,6.6,5.3,6.7,5.1,6.4
		c0.2-0.5,1-0.2,1.3-0.6C6.7,5.5,6.2,5,5.8,5.1C5.4,5.2,5.2,5.8,4.7,5.9c0.1-0.4,0.3-0.6,0.5-1c0.1-0.1,0.1-0.2,0.1-0.4
		C5.3,4.1,4.7,4,4.4,4.4C4.1,4.7,4.3,5.3,4.1,5.7C3.9,5.4,3.9,5.1,3.8,4.8C3.7,4.5,3.5,4.2,3.2,4.1C2.9,4,2.6,4.3,2.7,4.6
		s1.1,0.8,1.1,1.3c-0.4,0.2-0.6-0.4-1-0.6C2.5,5.3,2.1,5.6,2.2,5.9C2.3,6.3,2.6,6.4,3,6.4c0.2,0,0.4,0.1,0.5,0.4
		c0.1,0.2,0,0.5,0,0.7c0,1.3,0.6,2.3,1.8,2.9c0.4,0.2,0.5,0.6,0.5,1c0,0.4-0.3,0.7-0.4,1.1c-1.4,3.3-0.8,6.7,0.4,9.9
		c-0.9-0.4-1.9-0.3-2.6,0.4c-0.7,0.6-0.8,1.5-0.6,2.3c0,0.2,0.1,0.2,0.1,0.4c-0.3,0.1-0.2-0.2-0.4-0.4c-0.2-0.3-0.7-0.5-0.9-0.1
		c-0.4,0.8,0.5,0.7,0.8,1.2c-0.4,0.2-0.8-0.1-1.2,0c-0.3,0-0.5,0.3-0.5,0.6c0,0.3,0.3,0.5,0.6,0.5c0.2,0,0.4-0.2,0.6-0.2
		C1.8,27,2.1,26.8,2.2,27c-0.4,0.4-1.1,0.9-0.4,1.3c0.5,0.3,0.6-0.8,0.8-1.1c0.5,0.1,0.3,0.9,0.4,1.2c0.1,0.3,0.5,0.5,0.9,0.4
		s0.4-0.6,0.2-0.9c-0.1-0.2-0.3-0.2-0.5-0.4c-0.1-0.1-0.3-0.2-0.2-0.4c0.4,0,0.6,0.4,1.1,0.4c0.4,0,0.7-0.5,0.3-0.8
		c-0.2-0.2-0.4-0.2-0.7-0.2s-0.5,0-0.6-0.3c0-0.2,0.1-0.4,0.2-0.5c0.5-0.5,0.9-1,1.7-1c1,0,1.6,0.7,2.1,1.5c2.2,3.2,3.9,6.8,7.2,9
		c0.3,0.2,0.6,0.3,0.9,0.2C16,35.2,16.2,34.8,16,34.5"/>
</g>
</svg>
