<svg xmlns="http://www.w3.org/2000/svg" xmlns:xlink="http://www.w3.org/1999/xlink" viewBox="0 0 160.78 160.78"><defs><style>.cls-1,.cls-2{fill:none;}.cls-2{clip-rule:evenodd;}.cls-3{isolation:isolate;}.cls-4{clip-path:url(#clip-path);}.cls-5{fill:#1370f9;fill-rule:evenodd;}.cls-6{clip-path:url(#clip-path-2);}.cls-7{clip-path:url(#clip-path-3);}.cls-8{fill:#3d009f;}.cls-9{fill:#3d2ed7;}.cls-10{fill:#3d0095;}.cls-11{fill:#3d0086;}.cls-12{fill:#3d19c4;}.cls-13{fill:#3d008f;}.cls-14{fill:#3d00b9;}.cls-15{fill:#3d0088;}.cls-16{mix-blend-mode:hard-light;fill:url(#New_Gradient_Swatch_copy);}.cls-17{clip-path:url(#clip-path-4);}.cls-18{fill:#fff;}</style><clipPath id="clip-path"><circle class="cls-1" cx="80.39" cy="80.39" r="78"/></clipPath><clipPath id="clip-path-2"><path class="cls-2" d="M270.4,449.07c-43.16-28-79.67-62.16-107-105.83-11.77-18.78-21-39.37-12.57-61,7.82-20.05,28.63-26.81,46.56-35.23,3.52,3.15,2.88,6.25,1.59,10.29-1.93,6,0,12.93,6.31,15.09a9.56,9.56,0,0,0,12.63-8.93c0-4.17-3.27-7.63-5-11s-5.3-6.79-2.11-10c11.27,1.34,16.55,16.32,28,16.34,5.37,0,9.27-5,9.56-10.1a10.7,10.7,0,0,0-8.6-10.93c-7.12-1.19-13.47-.14-19.6-5.08a51.82,51.82,0,0,1,15.61-4,51.35,51.35,0,0,0,11.62-2.45c5.36-1.93,5.74-11.78.77-14.53s-10.81-1.06-15.78,1.5-11.51,8-17.06,9.1c3.78-5.81,12.18-13.21,15.75-18.91s2.55-17.41-5-17.08c-16.18.7-10,26.25-22.34,33.38-3.65-10.6.21-19.24-7.13-25.59-5-4.33-15.14-4.7-17,2.43-3.13,12.19,13.64,18.48,12.36,30.75-15.91-.92-29-19-45.19-13.6-12.65,4.22-13.74,21.54-25,28-2.11-39.45-12.34-74-30.62-109.28-2.36-4.55,2.67-9,7.47-9.69s9.61,1.72,14.74.55c10.48-2.41,15.24-11.88,17.7-21.91s3.68-19.83,10.89-27.68c9.1,2.11,11,10,16.07,15.86s13.67,4.85,15.28-2.49c2.52-11.49-16.29-11.21-17.88-22.31,5.86-3,12.49-.62,18.42.54s14.38,1.09,16-5.7C191.82,51,181.1,47,173.54,48.69a48.28,48.28,0,0,0-7.42,2.61c-5,2.08-10.13,4.18-15.71,2.52C156,42.59,175.7,44.14,177,30.52c.58-6-7-8.72-12.64-7.12-8.8,2.52-11.89,16.49-18.33,22.7-.89-8.28,6.31-22.67,2.06-29.38C144.45,11,137.49,9.53,133.35,14c-4.88,5.23-1.59,12.24,1.6,17.81s5.48,14.31-1.86,17.34c-7.75-2.74-6.46-12.54-14.51-15.55-6.71-2.51-13.87,5.53-10,12.39s13.49,6.72,18.89,12.25c-5.36,9-10.82,18.86-20.47,23.76S84.12,84.2,80.75,73.67C74.62,54.54,72.4,34.41,87,19.61c5.93-6,14.5-6.16,20.25-12.19C115.31-1,116.48-12,114.42-23s-7-21-9-31.76c-3.86-20.61,1.25-43.52-13.34-60.35-10.16-11.72-27.19-12-39.37-3.32C42.65-111.3,39-98.72,31.72-89,23.67-78.16,12.64-70.2,4.37-59.2s-11.54,24.85-4,37C10.2-6.47,13.24,10.34,3.8,26.72S-22.06,49.35-40.13,48.05c-6.77-.48-12.77-3.65-16.35-9.38a11.61,11.61,0,0,1,4.22-16.44c5.29.53,5.79,3.86,9.64,7.1s9.24,4.62,13.09,0c4.65-5.55-.5-11.27-6.26-12.73s-10.41.45-15.54-2.41c1.08-9.84,15.7-8.06,19.75-16.1C-28.16-8.68-38-16-45.12-12.62s-7.09,15.27-15,19.09c-.64-7.67,2.77-12.58,4.63-19.32.76-2.76,1.39-4.84.33-7.22-3.47-7.75-14.57-5.22-17.47,2s3.25,15.61,1.5,23.42c-5.39-2.63-7-8.63-10.18-13.31s-8-9.86-13.72-9.6-10,6-5.43,11.86,22.7,7.94,24.92,17.2c-6.72,4.65-12.54-4.25-19.7-4.92C-101,6.06-106.07,13.23-103,19s9.68,6.71,15.65,4.23c4.15-1.73,8.28.34,10.57,4.24s1.91,7.84,3.06,12.34c5.94,23.13,21,36.9,44.47,41.56,7.74,1.53,12,7.39,13.34,14.86s-.83,14-1.92,21.47C-27,180.92.62,237.37,36.81,287.44c-17.89-2-33.92,3.46-43.95,18.93-9.09,14-6.51,29.73,0,43.23,1.9,4,1.93,3.23,3.29,6.61-4.3,3.08-5.06-2-8.42-5.16-5.17-4.8-14.39-4.55-16.16,3.41C-32.13,370.89-16.71,363.9-9,372.14c-3.29,3.68-8,3.76-12.72,3.86a28,28,0,0,0-8.63,1.07,9.55,9.55,0,0,0-5.52,12.29,9.74,9.74,0,0,0,12.38,5.46c3.69-1.29,6-4.7,9-6.91s7.54-7.32,11.3-4.54c-4.66,8.26-14.55,20.79,0,24.44C7.16,410.38,3.69,391,4.69,384.69c8.43.06,9.08,14,12.77,19.47a10.9,10.9,0,0,0,16.49,2c4.93-4.7,3.91-12.48-1.18-16.6-2.88-2.33-6.94-2.68-10-4.31s-6.06-3-4.87-6.68c3.68-1.07,6.83-.06,9.94,1,3.27,1.08,6.5,2.19,10.26.85,7.32-2.6,8.94-12,1.94-16.23-4.86-2.92-8.2-1.16-13,.62s-9.5,2.07-12.07-3.17c-1.52-3.12-.45-6.77,1.1-9.75,5.56-10.62,11.61-22.16,24.09-25.44,17-4.46,31.58,5.15,44.15,15.72,53,44.63,99,99.95,167.25,121,5.7,1.75,11.59,2.51,16.81-.12s7-10.69,2.07-13.9"/></clipPath><clipPath id="clip-path-3"><polyline class="cls-1" points="-295.61 -434.34 369.83 -616.18 551.67 49.26 -113.77 231.1 -295.61 -434.34"/></clipPath><linearGradient id="New_Gradient_Swatch_copy" x1="135.54" y1="135.54" x2="25.23" y2="25.23" gradientUnits="userSpaceOnUse"><stop offset="0" stop-color="#fe157a"/><stop offset="0.11" stop-color="#fa187c"/><stop offset="0.22" stop-color="#ed2083"/><stop offset="0.34" stop-color="#d82e8e"/><stop offset="0.45" stop-color="#bb429d"/><stop offset="0.57" stop-color="#955bb1"/><stop offset="0.69" stop-color="#677ac9"/><stop offset="0.8" stop-color="#329ee5"/><stop offset="0.9" stop-color="#00bfff"/></linearGradient><clipPath id="clip-path-4"><rect class="cls-1" x="40.7" y="31.29" width="81.46" height="104.43" transform="translate(-33.98 66.61) rotate(-37.39)"/></clipPath></defs><g class="cls-3"><g id="Layer_1" data-name="Layer 1"><g class="cls-4"><path class="cls-5" d="M397.16,461.85c-60.36-39.18-111.41-86.91-149.69-148-16.47-26.27-29.41-55.06-17.59-85.35,10.94-28,40-37.5,65.11-49.28,4.94,4.42,4,8.74,2.22,14.4-2.69,8.38.06,18.07,8.84,21.1a13.36,13.36,0,0,0,17.65-12.49c.08-5.83-4.57-10.67-7-15.34s-7.41-9.49-3-14c15.76,1.87,23.15,22.81,39.15,22.84,7.5,0,13-7,13.37-14.12s-4.93-14.1-12-15.29c-10-1.65-18.84-.19-27.42-7.09,15.62-6.89,25-4.25,38.09-9,7.5-2.7,8-16.47,1.07-20.32s-15.11-1.48-22.06,2.09-16.1,11.21-23.85,12.73c5.28-8.12,17-18.47,22-26.45s3.57-24.33-7-23.88c-22.63,1-13.94,36.71-31.24,46.68-5.09-14.81.29-26.9-10-35.78-7-6.06-21.17-6.57-23.74,3.39-4.38,17,19.08,25.85,17.28,43-22.23-1.27-40.61-26.55-63.19-19-17.68,5.91-19.22,30.13-35,39.1-3-55.16-17.26-103.44-42.82-152.8-3.3-6.37,3.73-12.66,10.44-13.57s13.45,2.42,20.62.78c14.66-3.36,21.31-16.61,24.75-30.63s5.14-27.73,15.23-38.7c12.72,2.94,15.33,13.93,22.47,22.17s19.11,6.78,21.36-3.49c3.53-16.07-22.77-15.67-25-31.19,8.2-4.19,17.47-.87,25.76.75s20.11,1.53,22.38-8c2.87-12-12.11-17.66-22.69-15.23S241-87.4,229.37-90.85c7.87-15.7,35.37-13.54,37.21-32.58.81-8.36-9.79-12.2-17.67-9.95-12.31,3.52-16.64,23-25.64,31.74-1.24-11.59,8.82-31.71,2.88-41.09-5.1-8.06-14.84-10.06-20.64-3.83-6.82,7.32-2.22,17.12,2.23,24.92s7.68,20-2.59,24.24c-10.83-3.83-9-17.54-20.29-21.75-9.39-3.5-19.4,7.75-14,17.33s18.88,9.41,26.43,17.13c-7.5,12.64-15.14,26.38-28.63,33.23s-32,3.09-36.68-11.63c-8.57-26.76-11.67-54.9,8.8-75.59,8.29-8.39,20.27-8.62,28.31-17.06,11.22-11.78,12.85-27.19,10-42.58s-9.77-29.4-12.57-44.41c-5.38-28.82,1.75-60.87-18.65-84.4-14.2-16.39-38-16.76-55.05-4.64-14.09,10-19.24,27.6-29.39,41.24-11.25,15.12-26.68,26.25-38.24,41.63S9-214.15,19.61-197.14c13.71,22,18,45.48,4.75,68.38S-11.8-97.1-37.07-98.92C-46.54-99.6-54.93-104-59.94-112A16.23,16.23,0,0,1-54-135c7.41.73,8.1,5.39,13.49,9.93s12.91,6.45,18.29,0c6.51-7.76-.7-15.76-8.75-17.81s-14.54.65-21.73-3.37c1.51-13.76,22-11.26,27.62-22.5,4.79-9.49-9-19.79-18.94-15s-9.9,21.34-21,26.68c-.89-10.72,3.88-17.59,6.48-27,1.07-3.86,2-6.78.46-10.1-4.85-10.84-20.37-7.3-24.43,2.82s4.56,21.82,2.1,32.75c-7.53-3.68-9.79-12.08-14.24-18.62s-11.2-13.79-19.18-13.42-14,8.35-7.59,16.58,31.75,11.1,34.85,24c-9.41,6.51-17.54-5.93-27.55-6.87-8-.75-15.1,9.28-10.82,17.35s13.53,9.38,21.88,5.91c5.81-2.41,11.57.47,14.78,5.92s2.68,11,4.29,17.26c8.29,32.36,29.4,51.6,62.18,58.12C-11.06-50.18-5-42-3.22-31.55s-1.17,19.6-2.68,30C-18.74,86.89,19.9,165.82,70.53,235.83c-25-2.76-47.45,4.84-61.48,26.47C-3.65,281.89,0,303.88,9,322.76c2.67,5.55,2.71,4.51,4.61,9.24-6,4.3-7.09-2.87-11.78-7.22-7.23-6.72-20.12-6.36-22.61,4.78-5.12,23,16.44,13.2,27.25,24.72-7.45,8.34-20,3.44-29.85,6.89a13.35,13.35,0,0,0-7.72,17.19A13.64,13.64,0,0,0-13.77,386c5.15-1.81,8.4-6.58,12.56-9.66S9.33,366.1,14.58,370c-6.52,11.55-20.34,29.07,0,34.17,14.44,3.61,9.58-23.51,11-32.32,11.8.08,12.69,19.57,17.85,27.22s16.18,9.34,23.07,2.77,5.46-17.45-1.66-23.21c-4-3.25-9.7-3.76-14-6s-8.46-4.18-6.81-9.33c10.6-3.12,18,6.19,28.25,2.55S84.83,349,75,343.1c-6.78-4.08-11.46-1.62-18.25.87s-13.28,2.89-16.86-4.43c-2.15-4.37-.64-9.47,1.54-13.64,7.76-14.85,16.22-31,33.68-35.57,23.69-6.23,44.16,7.2,61.73,22,74.17,62.41,138.46,139.77,233.89,169.15,8,2.45,16.2,3.5,23.49-.17S404.07,466.34,397.16,461.85Z"/><g class="cls-6"><g class="cls-7"><path class="cls-8" d="M123.07,97.86q1.31,4.48,2.87,8.89,2.55-2.41,4.93-4.93c0-.15.07-.3.11-.46.41-1.66.78-3.31,1.16-5-3,.4-6,.88-9.07,1.45M105.38,102a194.54,194.54,0,0,0-84.22,48.44,183.5,183.5,0,0,0,35.84-6,177,177,0,0,0,33.66-13c-1.08-3.78,2.59-7.32,6.59-8.41a8.42,8.42,0,0,1,1.29-.26,23,23,0,0,1,6.55.36q4.75-3.08,9.22-6.46A135.57,135.57,0,0,1,105.38,102"/><path class="cls-8" d="M-19.61,142.26q0,3.24.12,6.46,4.37.69,9,1.17c2-2.39,4-4.73,6.16-7a60,60,0,0,1-15.32-.58m155-109.61c2.92,5.57,4.66,13.61-2.32,16.49a9.69,9.69,0,0,1-2.42-1.26,70.55,70.55,0,0,1-4.46,9.23,13.19,13.19,0,0,1,1.24,1.12c-2.93,4.94-5.9,10.13-9.56,14.61.13,1,.28,2.1.43,3.15a195.55,195.55,0,0,1,25.33-3.46,135.13,135.13,0,0,1-3.15-39c-1.69-.32-3.39-.62-5.09-.89m-220-21.27.18.63.66-.22-.84-.41M-49.25-8.88a54.05,54.05,0,0,0-3.62,6.77q4.71-2.68,9.2-5.66c-.06-.3-.12-.59-.2-.88-1.78-.15-3.57-.23-5.38-.23M-67.41-6.44C-69-6-70.48-5.54-72-5c.84,3.47,1.57,7,.81,10.38C-74.57,3.7-76.47.68-78.22-2.5a62.71,62.71,0,0,0-7.28,4l-.06.91c3.81,1.8,7.27,3.89,9,6.79A174.84,174.84,0,0,0-60,1.78c.48-3.69,1.82-6.84,3.07-10.23a68.73,68.73,0,0,0-10.43,2m161-44.1A131,131,0,0,1,108.8-37.59c.56.12,1.13.23,1.7.33-.7-2.11-1.42-4.22-2.09-6.32a137.57,137.57,0,0,0-14.85-7M-2.76-29.21a28.28,28.28,0,0,0,3.17,7,72.82,72.82,0,0,1,4.27,7.86c1.34.83,2.7,1.62,4.06,2.38l.57.36v0a105.61,105.61,0,0,0,25.45,10c1-2,1.89-4.09,2.68-6.18A144.31,144.31,0,0,1-2.76-29.21M97.54-88.7q2.61,1.55,5.32,3c0-.34-.07-.68-.1-1-1.76-.6-3.51-1.26-5.22-2"/><path class="cls-9" d="M-10.45,149.89c-2.89,3.47-5.63,7-8.19,10.61q.48,4.56,1.18,9.06A124.2,124.2,0,0,1-.07,175.78a173.48,173.48,0,0,1,21.23-25.36q-6,.41-12.1.42a192.31,192.31,0,0,1-19.51-1M90.86,83.42a252.3,252.3,0,0,0-34.22,14.1,67.56,67.56,0,0,1-3.46,7.37q3.12-.72,6.14-1.55A133.33,133.33,0,0,0,98.18,86.11l-.66-1.76a20.52,20.52,0,0,1-6.66-.93m43.81-70.6A8.93,8.93,0,0,0,133.35,14c-4.82,5.16-1.67,12.07,1.48,17.6a64.78,64.78,0,0,0,.49-8.16,85.28,85.28,0,0,0-.65-10.61M-61.9,62.2l-.89.25A52,52,0,0,0-38.65,78.86,45.28,45.28,0,0,0-40.2,66a43.36,43.36,0,0,0-2.62-7.18A100,100,0,0,0-61.9,62.2M34.77-1.63A81,81,0,0,1,22.45,16.65,65.58,65.58,0,0,1,50.25,41q6.09-2.11,12.3-3.81c3-.83,6-1.57,9.08-2.25A79.73,79.73,0,0,1,53.83,19a1.05,1.05,0,0,1-.06-1.26,1,1,0,0,1,.59-.41,1.06,1.06,0,0,1,.61,0,112.39,112.39,0,0,0,28.85,6A40.47,40.47,0,0,1,87,19.61c5.93-6,14.5-6.16,20.25-12.19a28.11,28.11,0,0,0,6.28-10.3A166.84,166.84,0,0,1,78.72-.33a104,104,0,0,1-43.95-1.3M-97.63,6.8a9,9,0,0,0-6.07,10.41l1.6-.33a58.54,58.54,0,0,1,9-9.83,10.47,10.47,0,0,0-2.21-.46,6.9,6.9,0,0,0-2.36.21m54-20a8.58,8.58,0,0,0-1.46.55l-.2.1a17.19,17.19,0,0,1,1.45,3.87l1.33.13c1.94-1.3,3.83-2.64,5.7-4a10.34,10.34,0,0,0-6.82-.64m-42.73-.7a159.63,159.63,0,0,1-15.7,5.29,9.54,9.54,0,0,0,1.6,2.89C-98.07-2.61-91.95-.57-86.35,2c.28-.18.56-.37.85-.54A29.28,29.28,0,0,1-82.6-9.69a29.94,29.94,0,0,0-3.79-4.18m21.75-10.72q-3,1.79-6.06,3.45c-.18.19-.35.4-.52.6a24.58,24.58,0,0,1,3-1.05,26.16,26.16,0,0,1,6.91-.9,16.45,16.45,0,0,1,5.24.92,8.13,8.13,0,0,0-8.6-3M55.06-120c-.8.47-1.57,1-2.33,1.52a37.78,37.78,0,0,0-9.82,10.92,69.55,69.55,0,0,0,24.53.18A115.34,115.34,0,0,1,55.06-120"/><path class="cls-10" d="M90.66,131.39a177,177,0,0,1-33.66,13,183.5,183.5,0,0,1-35.84,6A173.48,173.48,0,0,0-.07,175.78q3.24,1.42,6.57,3.09a124.86,124.86,0,0,1,49.83-26.24A117.93,117.93,0,0,1,99,148.85q-3.69-8.22-8-16.44a5.44,5.44,0,0,1-.41-1m23.65-14.77q-4.45,3.38-9.22,6.46a21.44,21.44,0,0,0,8.19.19l.83-.21a19.63,19.63,0,0,0,3.85-1.5q-1.86-2.39-3.65-4.94m16.56-14.8q-2.38,2.52-4.93,4.93c.52,1.45,1.06,2.9,1.63,4.33a47.08,47.08,0,0,0,3.3-9.26"/><path class="cls-11" d="M56.33,152.63A124.86,124.86,0,0,0,6.5,178.87a176.57,176.57,0,0,1,21.37,12.76l.79.55,70.5-19.27a82.66,82.66,0,0,1,7.88-4.2q-3.58-10-8-19.86a117.93,117.93,0,0,0-42.69,3.78"/><path class="cls-10" d="M-19.49,148.72q.22,5.92.85,11.78c2.56-3.59,5.3-7.14,8.19-10.61q-4.68-.48-9-1.17M117.92,33.38a136.52,136.52,0,0,0-1.33,18.87c3.3,1.44,6.84,2.64,9.62,4.86a70.55,70.55,0,0,0,4.46-9.23c-5.15-3.72-5-11.64-12.09-14.29q-.33-.12-.66-.21M62.55,37.16q-6.21,1.7-12.3,3.81A74,74,0,0,1,59,61.22a57.2,57.2,0,0,1-2.4,36.3,252.3,252.3,0,0,1,34.22-14.1,15,15,0,0,1-10.11-9.75c-3.84-12-6.14-24.33-3.74-35.53-1.87-1-3.66-2.1-5.38-3.23-3,.68-6.07,1.42-9.08,2.25M-42.82,58.83A43.36,43.36,0,0,1-40.2,66a45.28,45.28,0,0,1,1.55,12.85,72.78,72.78,0,0,0,9.39,2.51c7.74,1.53,12,7.39,13.34,14.86a29.51,29.51,0,0,1,.31,7.41c8.78-4.12,16.17-13.77,13-25.56C-6.33,64.65-21.51,57.32-42.82,58.83M37.45-7.81c-.79,2.09-1.69,4.15-2.68,6.18A104,104,0,0,0,78.72-.33,142.67,142.67,0,0,1,37.45-7.81m-69,5.87c-.79,1.06-1.58,2.05-2.35,3a9.4,9.4,0,0,0,2.33-2.92l0-.05m-61.5,9a58.54,58.54,0,0,0-9,9.83q4-.86,8-1.94,4.89-1.33,9.66-2.93l-.18-.63C-87.35,10-90.1,8-93.06,7.05m49.19-15.7c.08.29.14.58.2.88l1.13-.75-1.33-.13M-85.5,1.46c-.29.17-.57.36-.85.54l.79.37.06-.91m128.41-109c-3.86,6-6.9,12.8-11.19,18.57h0C49.42-62.08,76.85-44,108.8-37.59A131,131,0,0,0,93.56-50.54a137.57,137.57,0,0,1,14.85,7,91.65,91.65,0,0,1-3-11.21c-1.89-10.08-1.63-20.71-2.58-30.92q-2.72-1.44-5.32-3a107.52,107.52,0,0,1-30.1-18.66,69.55,69.55,0,0,1-24.53-.18"/><path class="cls-12" d="M143.65,72.53c.14.61.27,1.21.42,1.82a14.83,14.83,0,0,1,4.64,2.85q1.31-2.48,2.48-5c-2.49.07-5,.19-7.54.36m13-42.87a71.46,71.46,0,0,0-4.08,6.75c1.91.53,3.81,1.11,5.71,1.72-.65-2.85-1.2-5.68-1.63-8.47M143.82,12.59a118.93,118.93,0,0,0-3.32,21q3.47.68,6.91,1.51c1.52-6.86,3.37-14.11.7-18.33a12.12,12.12,0,0,0-4.29-4.13m-77.77-125q2.51,2.18,5,4.31,1.23-.27,2.46-.57-3.77-1.74-7.48-3.74"/><path class="cls-13" d="M159.3,26.53a23.16,23.16,0,0,0-2.61,3.13c.43,2.79,1,5.62,1.63,8.47-1.9-.61-3.8-1.19-5.71-1.72-2,3.65-4,7.27-6.56,9.69-.33-3.07.46-7,1.36-11.05q-3.45-.84-6.91-1.51a135.13,135.13,0,0,0,3.15,39c2.53-.17,5-.29,7.54-.36a92.75,92.75,0,0,0,6.16-18,15.22,15.22,0,0,1-6.94-.36c1.76-3.51,4.89-5.77,8.41-7.64A89.35,89.35,0,0,0,159.65,34q0-3.78-.35-7.46M108.8-37.59c.81.82,1.61,1.64,2.4,2.47-.23-.71-.47-1.42-.7-2.14-.57-.1-1.14-.21-1.7-.33M22.21-78.2c-6.07,6.12-12.53,11.93-17.84,19-6.72,8.93-10.14,19.74-7.13,30A144.31,144.31,0,0,0,37.45-7.81a63.89,63.89,0,0,0,4.32-22.64c0-16.66-6.67-33.84-19.56-47.75m48.86-29.86A194.22,194.22,0,0,0,97.54-88.7c1.71.7,3.46,1.36,5.22,2A72,72,0,0,0,100.4-99.6a130.15,130.15,0,0,1-26.87-9q-1.23.3-2.46.57"/><path class="cls-14" d="M151.19,72.17q-1.17,2.55-2.48,5c3.78,3.4,5.75,8.33,9.23,12.34,2.81,3.25,6.69,4.39,9.86,3.53a7.61,7.61,0,0,0,5.42-6c1.78-8.12-7.08-10.36-13-14.89q-4.47-.1-9,0M115.28-12.45A164,164,0,0,1,88-2.43q-4.61,1.26-9.23,2.1a166.84,166.84,0,0,0,34.85-2.55,33.07,33.07,0,0,0,1.71-9.57m-180.57-12a11.47,11.47,0,0,0-5.41,3.29q3.11-1.66,6.06-3.45l-.65.16m-33.92,8.17a6.48,6.48,0,0,0-2.88,7.68,159.63,159.63,0,0,0,15.7-5.29,16.42,16.42,0,0,0-4-2.69,76.63,76.63,0,0,0-9.15,6.06.87.87,0,0,1-.36.18,1,1,0,0,1-.91-.17,1,1,0,0,1-.35-1.21c.59-1.56,1.24-3.08,1.93-4.56M63.11-123.4a33,33,0,0,0-8,3.42,115.34,115.34,0,0,0,12.38,12.62c1.21-.2,2.41-.43,3.63-.7q-2.52-2.13-5-4.31,3.72,2,7.48,3.74c.57-.14,1.14-.29,1.7-.45A65.54,65.54,0,0,0,91.36-116c-7.48-8-18.32-10.14-28.25-7.43"/><path class="cls-15" d="M172.6,48.92a54.64,54.64,0,0,0-6.48,2.38,54.57,54.57,0,0,1-6.5,2.38c-.75.2-1.51.37-2.27.5a92.75,92.75,0,0,1-6.16,18q4.56-.12,9,0c-2.46-1.88-4.41-4.16-4.88-7.42a12.23,12.23,0,0,1,2.45-.94c5.21-1.43,10.85.48,16,1.48a23.38,23.38,0,0,0,10.06,0c2.86-.78,5.17-2.49,5.94-5.72C191.82,51,181.1,47,173.54,48.69c-.32.07-.63.14-.94.23m-8.1-25.55-.12,0a12,12,0,0,0-5.08,3.13q.34,3.67.35,7.46a89.35,89.35,0,0,1-.83,12.19c7.72-4.1,17.3-6.3,18.2-15.66.58-5.93-6.9-8.69-12.52-7.15M-97-17.25a8.15,8.15,0,0,0-2.25,1c-.69,1.48-1.34,3-1.93,4.56a1,1,0,0,0,.35,1.21,1,1,0,0,0,.91.17.87.87,0,0,0,.36-.18,76.63,76.63,0,0,1,9.15-6.06,9.89,9.89,0,0,0-4.69-1,8.38,8.38,0,0,0-1.9.3M31.71-89a101.23,101.23,0,0,1-9.5,10.76C35.1-64.29,41.76-47.11,41.77-30.45A63.89,63.89,0,0,1,37.45-7.81,142.67,142.67,0,0,0,78.72-.33q4.62-.84,9.23-2.1a164,164,0,0,0,27.33-10A47,47,0,0,0,114.42-23a98.17,98.17,0,0,0-3.22-12.09c-.79-.83-1.59-1.65-2.4-2.47C76.85-44,49.42-62.08,31.71-89m35.73-18.4A107.52,107.52,0,0,0,97.54-88.7a194.22,194.22,0,0,1-26.47-19.36c-1.22.27-2.42.5-3.63.7M91.36-116a65.54,65.54,0,0,1-16.13,6.89c-.56.16-1.13.31-1.7.45a130.15,130.15,0,0,0,26.87,9,40.47,40.47,0,0,0-8.3-15.54c-.24-.29-.49-.56-.74-.83"/><path class="cls-12" d="M114.14,76.89A30.6,30.6,0,0,1,107,82a21.84,21.84,0,0,1-4.09,1.57c-.52.14-1,.27-1.55.37-1,.74-2.08,1.47-3.16,2.18a145.25,145.25,0,0,0,7.2,15.87l1.34-.38q8.31-2.26,16.35-3.74A165.78,165.78,0,0,1,118.32,76c-1.39.29-2.79.59-4.18.9"/><path class="cls-13" d="M106.72,101.6l-1.34.38a135.57,135.57,0,0,0,8.93,14.64,139.37,139.37,0,0,0,11.63-9.87q-1.56-4.41-2.87-8.89-8,1.48-16.35,3.74"/><path class="cls-13" d="M117.89,72.84a43.65,43.65,0,0,1-3.75,4c1.39-.31,2.79-.61,4.18-.9-.15-1-.3-2.1-.43-3.15"/><path class="cls-14" d="M97.52,84.35l.66,1.76c1.08-.71,2.13-1.44,3.16-2.18a22.55,22.55,0,0,1-3.82.42m-43.16-67a1,1,0,0,0-.59.41A1.05,1.05,0,0,0,53.83,19a79.73,79.73,0,0,0,17.8,15.92q3.32-.72,6.65-1.34A36.07,36.07,0,0,1,83.82,23.3a112.39,112.39,0,0,1-28.85-6,1.06,1.06,0,0,0-.61,0"/><path class="cls-15" d="M125.94,106.75a139.37,139.37,0,0,1-11.63,9.87q1.78,2.55,3.65,4.94c4.35-2.26,7.41-6,9.61-10.48-.57-1.43-1.11-2.88-1.63-4.33"/><path class="cls-15" d="M114,33.39c-4.86,1.33-8.43,7.31-5.46,12.59,1.77,3.16,4.78,4.84,8,6.27a136.52,136.52,0,0,1,1.33-18.87,7.27,7.27,0,0,0-3.9,0M71.63,34.91c1.72,1.13,3.51,2.2,5.38,3.23a38.74,38.74,0,0,1,1.27-4.57q-3.33.61-6.65,1.34"/><path class="cls-12" d="M38.58,107.62A204.86,204.86,0,0,0-4.29,142.84a69.07,69.07,0,0,0,12.13-2.2,74.54,74.54,0,0,0,45.34-35.75q-7.07,1.64-14.6,2.73M9.11,11.72a40.76,40.76,0,0,1-2.81,10q2,3,3.71,6.33a83,83,0,0,0,12.44-11.4A81.45,81.45,0,0,0,9.11,11.72"/><path class="cls-13" d="M-16,107.45c-.51,3.34-1.27,6.69-1.79,10.25a171.43,171.43,0,0,0-1.77,24.56,60,60,0,0,0,15.32.58,204.86,204.86,0,0,1,42.87-35.22,200,200,0,0,1-28.47,2A163.1,163.1,0,0,1-16,107.45M6.3,21.72a45.71,45.71,0,0,1-2.5,5A43.48,43.48,0,0,1-3.4,36.1a78.14,78.14,0,0,0,13.41-8q-1.72-3.3-3.71-6.33m-50-29.49q-4.48,3-9.2,5.66c-1.73,3.49-3.69,6.85-7.28,8.58A22,22,0,0,1-60,1.78,174.84,174.84,0,0,1-76.54,9.16a8.22,8.22,0,0,1,1,2.35,7.56,7.56,0,0,1-2.32,1.11,8.52,8.52,0,0,1-5.9-.83l-.66.22c3.29,11.48,13.55,20.93,27.66,26.14a11.6,11.6,0,0,1,4.53-15.92c5.29.53,5.79,3.86,9.64,7.1,2.64,2.22,6,3.57,9.07,2.72a7.93,7.93,0,0,0,4-2.7c4.65-5.55-.5-11.27-6.26-12.73s-10.41.45-15.54-2.41C-51,11-49.16,9-46.74,7.51A19.3,19.3,0,0,0-43.31-4a19.87,19.87,0,0,0-.36-3.78"/><path class="cls-14" d="M56.64,97.52q-9.45,4.74-18.06,10.1,7.53-1.09,14.6-2.73a67.56,67.56,0,0,0,3.46-7.37M-70.65,43.71c-.61.16-1.2.35-1.78.55a56.48,56.48,0,0,0,9.64,18.19l.89-.25a100,100,0,0,1,19.08-3.37c-5.75-12.25-16.25-18.29-27.83-15.12m93.1-27.06A83,83,0,0,1,10,28.05a81.3,81.3,0,0,1,6.34,16.23c3.79,13.85,4.41,31.64-1.68,48.13,10.41-15,15.44-24.89,16.65-43.74A194.33,194.33,0,0,1,50.25,41a65.58,65.58,0,0,0-27.8-24.32m-126.15.56a8,8,0,0,0,.45,1.3c.37-.55.75-1.09,1.15-1.63l-1.6.33m66.86-29.74c-1.87,1.37-3.76,2.71-5.7,4A65.17,65.17,0,0,1-31.07-6.28a9.89,9.89,0,0,0-5.77-6.25"/><path class="cls-15" d="M-84.45,12q-4.77,1.59-9.66,2.93-4,1.08-8,1.94c-.4.54-.78,1.08-1.15,1.63l.24.49c2.7,5.1,8.17,6.43,13.53,5a17.15,17.15,0,0,0,2.12-.73,8,8,0,0,1,1-.34c3.79-1,7.45,1,9.56,4.58,2.29,3.89,1.91,7.84,3.06,12.34.4,1.52.83,3,1.3,4.45.58-.2,1.17-.39,1.78-.55,11.58-3.17,22.08,2.87,27.83,15.12,21.31-1.51,36.49,5.82,40.16,19.25C.56,89.87-6.83,99.52-15.61,103.64c-.09,1.27-.25,2.54-.44,3.81a163.1,163.1,0,0,0,26.16,2.16,200,200,0,0,0,28.47-2q8.61-5.34,18.06-10.1A57.2,57.2,0,0,0,59,61.22,74,74,0,0,0,50.25,41a194.33,194.33,0,0,0-18.93,7.7c-1.21,18.85-6.24,28.79-16.65,43.74,6.09-16.49,5.47-34.28,1.68-48.13A81.3,81.3,0,0,0,10,28.05,78.14,78.14,0,0,1-3.4,36.1,41.09,41.09,0,0,1-21.63,46.43a55.36,55.36,0,0,1-18.5,1.62c-6.77-.48-12.77-3.65-16.35-9.38-.11-.17-.21-.35-.31-.52C-70.9,32.94-81.16,23.49-84.45,12M-42.54-8.52l-1.13.75A19.87,19.87,0,0,1-43.31-4a19.3,19.3,0,0,1-3.43,11.5C-42.85,5.13-37.39,4-33.91,1c.77-.92,1.56-1.91,2.35-3a6.27,6.27,0,0,0,.49-4.34A65.17,65.17,0,0,0-42.54-8.52"/></g></g><circle class="cls-16" cx="80.39" cy="80.39" r="78"/></g><g id="Artwork_49" data-name="Artwork 49"><g class="cls-17"><g class="cls-17"><path class="cls-18" d="M83.65,26.26c-2,.9-3,2.95-4.62,4.39-1.75,1.59-3.92,2.6-5.72,4.22s-2.82,3.9-1.92,6.26c1.17,3,1.13,6-1,8.55s-5.22,3-8.29,2.21a3.56,3.56,0,0,1-2.51-2.16A2,2,0,0,1,60.82,47c.89.27.87.86,1.42,1.55A1.54,1.54,0,0,0,64.5,49c1-.8.29-2-.65-2.41s-1.81-.26-2.61-.93c.52-1.67,3-.87,3.95-2.12.82-1.06-.64-2.66-2-2.3S61.48,43.65,60,44.05c.15-1.35.9-2.08,1.45-3.18a1.8,1.8,0,0,0,.3-1.24c-.34-1.45-2.34-1.39-3.09-.24s0,2.81-.52,4.1c-.84-.64-.92-1.73-1.32-2.64s-1-2-2-2.12a1.24,1.24,0,0,0-1.34,1.87c.6,1.17,3.66,2.13,3.73,3.8-1.32.58-2-1.15-3.24-1.51a1.52,1.52,0,0,0-1.74,1.89A2,2,0,0,0,54.72,46a1.48,1.48,0,0,1,1.69,1.08,7.9,7.9,0,0,1,.11,2.24A9.38,9.38,0,0,0,62.81,58a3,3,0,0,1,1.8,3,11.32,11.32,0,0,1-1,3.64c-3.7,10.61-.82,21.27,3.76,31.13-3-.94-6-.54-8.22,1.79-2,2.12-2.12,4.92-1.46,7.47A11.8,11.8,0,0,1,58,106.3c-.85.38-.81-.53-1.28-1.18-.73-1-2.33-1.26-2.91,0-1.18,2.71,1.72,2,2.78,3.71-1.12.85-2.56-.06-3.85.13A1.69,1.69,0,0,0,51.36,111a1.73,1.73,0,0,0,2,1.36,6.63,6.63,0,0,0,1.78-.9c.59-.28,1.55-1,2.1-.4-1.08,1.27-3.21,3.1-.81,4.22,1.69.79,1.74-2.68,2.13-3.73,1.45.29,1.09,2.72,1.55,3.79a1.92,1.92,0,0,0,2.78.89,1.94,1.94,0,0,0,.35-2.9c-.42-.5-1.11-.7-1.58-1.08s-.94-.72-.62-1.32c1.38-.13,2.08,1.2,3.43,1a1.56,1.56,0,0,0,.88-2.73c-.74-.67-1.38-.48-2.28-.33s-1.71,0-2-1a2,2,0,0,1,.51-1.65c1.32-1.65,2.75-3.44,5-3.58,3.08-.21,5.28,1.94,7.1,4.19,7.66,9.47,13.74,20.56,24.82,26.47a3.91,3.91,0,0,0,2.9.54,1.47,1.47,0,0,0,.82-2.33,60.39,60.39,0,0,1-14.93-21.85c-1.41-3.63-2.31-7.5-.13-11,2-3.2,5.84-3.67,9.22-4.53.5.67.28,1.18-.07,1.83a2,2,0,0,0,.58,2.82,1.68,1.68,0,0,0,2.48-1.12,4.33,4.33,0,0,0-.5-2.06c-.19-.63-.69-1.35,0-1.8,1.9.61,2.31,3.37,4.29,3.76a1.82,1.82,0,0,0,2-1.42A1.9,1.9,0,0,0,104,94c-1.19-.44-2.32-.47-3.22-1.53,2.09-.48,3.19.07,4.92-.19a1.55,1.55,0,0,0,.62-2.49,3,3,0,0,0-2.78-.27,13.56,13.56,0,0,1-3.25,1c.85-.87,2.55-1.87,3.36-2.73s1-2.92-.3-3.12c-2.81-.42-2.6,4.2-5,5-.27-2,.68-3.31-.37-4.65-.72-.92-2.46-1.32-3-.15-1,2,1.73,3.65,1.1,5.72-2.72-.69-4.38-4.25-7.35-3.86-2.32.31-3.09,3.26-5.25,4a45.89,45.89,0,0,0-1.63-19.88c-.26-.87.76-1.48,1.61-1.43S85.08,70,86,70c1.89-.06,3-1.54,3.79-3.19s1.29-3.3,2.8-4.41c1.5.67,1.56,2.09,2.24,3.27s2.2,1.3,2.72.08c.82-1.89-2.43-2.48-2.33-4.44,1.11-.32,2.17.31,3.16.71s2.44.67,3-.45c.64-1.42-1.07-2.47-2.44-2.43s-2.81.82-4.16.12c1.35-1.75,4.69-.83,5.37-3.14.3-1-.91-1.74-1.94-1.65-1.6.14-2.61,2.45-3.92,3.31.12-1.46,1.84-3.7,1.33-5a1.63,1.63,0,0,0-2.45-1c-1,.74-.69,2.06-.32,3.13s.47,2.65-.9,2.93c-1.25-.73-.7-2.38-2-3.17a1.52,1.52,0,0,0-2.14,1.8c.43,1.31,2.1,1.61,2.85,2.75-1.23,1.38-2.5,2.89-4.33,3.41s-4-.38-4.25-2.31c-.42-3.51-.12-7,2.9-9.12,1.22-.83,2.71-.58,3.9-1.43a5.83,5.83,0,0,0,2.25-5c0-2-.5-3.87-.49-5.79,0-3.68,1.67-7.47-.28-10.86a5.14,5.14,0,0,0-6.68-1.89"/></g></g></g></g></g></svg>